<?xml version="1.0" standalone="no"?>
<!DOCTYPE svg PUBLIC "-//W3C//DTD SVG 20010904//EN"
 "http://www.w3.org/TR/2001/REC-SVG-20010904/DTD/svg10.dtd">
<svg version="1.0" xmlns="http://www.w3.org/2000/svg"
 width="400.000000pt" height="400.000000pt" viewBox="0 0 400.000000 400.000000"
 preserveAspectRatio="xMidYMid meet">
<metadata>
Created by potrace 1.14, written by Peter Selinger 2001-2017
</metadata>
<g transform="translate(0.000000,400.000000) scale(0.100000,-0.100000)"
fill="#000000" stroke="none">
<path d="M311 3948 c-15 -72 -16 -157 -2 -171 8 -8 11 2 11 40 0 50 13 132 25
166 5 12 2 17 -8 17 -11 0 -19 -17 -26 -52z"/>
<path d="M487 3963 c16 -21 42 -58 58 -83 63 -99 221 -269 315 -338 121 -90
173 -132 162 -132 -6 0 -17 6 -24 13 -27 27 -138 108 -138 101 0 -3 -19 10
-42 30 -66 57 -72 61 -81 58 -5 -1 -6 1 -3 6 2 4 -7 17 -21 28 -15 10 -30 24
-35 29 -25 31 -88 103 -117 134 -45 48 -111 138 -111 151 0 18 -48 11 -53 -7
-10 -35 -6 -304 3 -298 6 4 10 2 10 -4 0 -5 -5 -11 -12 -13 -7 -3 -9 -12 -5
-22 4 -9 10 -15 15 -12 4 2 9 -4 9 -15 1 -10 -2 -19 -7 -19 -8 0 -1 -32 16
-74 5 -13 4 -17 -4 -12 -6 3 -13 2 -16 -3 -4 -5 5 -8 19 -7 21 3 23 1 13 -17
-8 -16 -8 -19 5 -14 12 5 15 -1 12 -29 -2 -27 0 -34 11 -30 7 3 16 0 20 -6 4
-6 3 -9 -2 -6 -5 3 -15 0 -22 -8 -11 -12 -10 -14 3 -14 10 0 13 -5 9 -12 -4
-6 -3 -8 4 -4 18 11 22 -9 7 -37 -8 -15 -9 -27 -4 -27 6 0 6 -8 -1 -20 -8 -15
-8 -20 1 -20 6 0 9 -6 6 -14 -6 -16 19 -30 27 -15 2 5 3 4 2 -2 -1 -7 -12 -13
-24 -14 -26 -2 -38 -12 -28 -22 4 -4 10 -3 14 2 4 6 16 10 27 11 18 0 21 -5
19 -38 -2 -33 0 -36 16 -28 9 5 21 6 25 2 4 -4 5 4 1 18 -3 14 -3 19 0 12 5
-10 9 -10 22 0 12 11 12 8 -2 -14 -20 -30 -11 -59 24 -78 21 -11 27 -30 9 -30
-5 0 -7 5 -4 10 3 6 -1 10 -9 10 -9 0 -16 4 -16 9 0 9 -11 8 -60 -4 -8 -2 -18
-4 -22 -4 -19 -2 -5 -16 17 -17 14 -1 25 2 25 7 0 13 28 11 36 -3 4 -7 3 -8
-5 -4 -6 4 -18 3 -25 -3 -7 -6 -20 -9 -29 -5 -8 3 -18 1 -22 -5 -3 -6 1 -11 9
-11 9 0 16 -8 16 -18 0 -15 7 -18 30 -17 16 1 27 -2 23 -8 -3 -5 -14 -7 -24
-4 -10 3 -20 0 -23 -7 -3 -7 -5 -7 -5 2 -1 7 -6 10 -11 7 -6 -4 -9 -1 -8 6 2
6 -3 14 -10 16 -14 6 -4 -28 12 -39 7 -5 6 -8 -3 -8 -7 0 -11 -6 -8 -14 3 -8
1 -16 -5 -18 -7 -3 7 -12 30 -21 28 -11 42 -23 41 -34 -1 -16 -2 -16 -6 1 -4
15 -7 16 -14 5 -5 -9 -9 -9 -9 -2 0 6 -9 9 -20 6 -27 -7 -25 -20 5 -27 14 -4
25 -14 25 -23 0 -15 -2 -14 -15 3 -14 18 -14 18 -10 -4 2 -12 6 -26 9 -31 4
-5 2 -11 -2 -13 -5 -1 -23 -48 -39 -103 -40 -130 -101 -286 -119 -305 -12 -12
-13 -10 -5 15 6 17 27 73 48 125 43 105 98 269 92 274 -2 2 -15 7 -29 11 -23
7 -23 7 -7 -9 12 -12 14 -23 8 -34 -4 -9 -11 -24 -15 -32 -3 -8 -4 -1 0 15 4
24 3 27 -7 18 -7 -7 -12 -34 -12 -60 0 -28 -3 -39 -7 -28 -5 16 -8 13 -13 -13
-4 -17 -4 -39 0 -49 4 -10 2 -14 -4 -10 -7 4 -11 -2 -11 -16 0 -21 -83 -249
-89 -243 -4 4 40 183 97 401 24 88 45 170 48 183 8 41 -15 23 -33 -25 -10 -27
-21 -50 -24 -53 -4 -3 -15 -25 -26 -50 -30 -68 -65 -127 -65 -109 0 9 6 54 14
100 8 46 20 163 26 259 6 96 15 211 19 255 9 82 7 101 -9 75 -11 -18 -16 -62
-31 -305 -6 -104 -18 -224 -25 -265 -12 -66 -13 -12 -9 443 3 320 2 517 -4
517 -12 0 -25 -100 -17 -136 3 -16 2 -166 -2 -334 -4 -168 -5 -386 -2 -485 4
-126 2 -199 -7 -245 -15 -75 -1 -108 17 -39 13 55 114 280 119 267 1 -5 -2
-21 -7 -36 -13 -35 -44 -152 -86 -328 -18 -77 -41 -157 -51 -178 -18 -38 -18
-39 0 -52 10 -8 28 -14 39 -14 19 0 18 -1 -4 -17 -44 -30 -173 -137 -228 -188
-29 -27 -57 -51 -62 -53 -5 -2 -9 -418 -10 -953 l0 -949 2000 0 2000 0 0 1528
-1 1528 -69 12 c-75 13 -170 14 -209 3 -18 -5 -65 9 -161 45 -125 47 -217 72
-325 89 -60 9 -135 35 -135 47 0 6 6 5 15 -2 29 -24 28 0 -1 32 -24 28 -25 30
-4 13 14 -11 28 -24 32 -30 5 -6 11 -6 17 0 7 7 -16 45 -70 118 -48 64 -77
112 -73 120 4 6 4 9 0 5 -5 -4 -42 44 -83 105 -84 124 -150 206 -255 314 l-69
72 -152 -1 c-103 0 -154 -4 -159 -12 -6 -8 -8 -8 -8 2 0 7 -14 12 -34 12 -38
0 -44 -8 -40 -65 2 -22 4 -70 5 -107 1 -38 5 -68 9 -68 4 0 11 -7 14 -16 5
-14 4 -15 -9 -4 -19 16 -21 -4 -3 -25 43 -48 43 -49 17 -42 -20 5 -21 4 -8 -6
8 -7 18 -20 22 -29 5 -15 1 -14 -36 3 -23 11 -50 23 -60 26 -16 5 -18 13 -12
67 17 154 20 266 9 266 -12 0 -20 -53 -30 -215 l-7 -100 -37 3 c-73 7 -137
-81 -143 -195 l-2 -52 -80 -21 c-44 -12 -100 -29 -123 -37 l-44 -16 -40 46
c-73 86 -167 124 -228 92 -51 -26 -117 -93 -151 -151 -17 -30 -32 -54 -35 -54
-2 0 -30 20 -61 44 -32 24 -85 60 -118 81 -106 68 -279 202 -324 252 -76 82
-120 141 -113 149 4 4 2 4 -5 0 -8 -4 -34 26 -73 84 -33 49 -68 90 -76 90 -12
0 -9 -9 13 -37z m2153 -40 l52 -68 -56 60 c-49 54 -64 75 -52 75 2 0 27 -30
56 -67z m-245 27 c9 -16 13 -30 11 -30 -3 0 -12 14 -21 30 -9 17 -13 30 -11
30 3 0 12 -13 21 -30z m63 -65 c-3 -3 -9 2 -12 12 -6 14 -5 15 5 6 7 -7 10
-15 7 -18z m-24 -11 c3 -8 2 -12 -4 -9 -6 3 -10 10 -10 16 0 14 7 11 14 -7z
m61 -4 c3 -6 -1 -7 -9 -4 -18 7 -21 14 -7 14 6 0 13 -4 16 -10z m-2011 -28 c2
-4 -4 -8 -14 -8 -10 0 -16 4 -14 8 3 4 9 8 14 8 5 0 11 -4 14 -8z m19 -42 c3
-11 1 -18 -4 -14 -5 3 -9 12 -9 20 0 20 7 17 13 -6z m2248 -7 c13 -15 17 -22
8 -15 -9 6 -20 8 -25 4 -5 -4 -6 -3 -2 2 4 5 3 15 -3 23 -21 25 -3 13 22 -14z
m-349 -8 c3 -13 1 -22 -3 -19 -9 5 -13 44 -5 44 2 0 6 -11 8 -25z m72 9 c3 -8
2 -12 -4 -9 -6 3 -10 10 -10 16 0 14 7 11 14 -7z m46 -9 c13 -14 21 -25 18
-25 -2 0 -15 11 -28 25 -13 14 -21 25 -18 25 2 0 15 -11 28 -25z m152 -77 c63
-75 38 -56 -33 25 -34 39 -50 61 -35 47 15 -14 46 -46 68 -72z m-315 50 c-3
-7 -5 -2 -5 12 0 14 2 19 5 13 2 -7 2 -19 0 -25z m293 -71 c-3 -3 -27 21 -54
52 l-49 56 53 -52 c30 -29 52 -54 50 -56z m-2110 63 c6 -11 8 -20 6 -20 -3 0
-10 9 -16 20 -6 11 -8 20 -6 20 3 0 10 -9 16 -20z m2070 -62 c0 -4 -7 -5 -15
-1 -9 3 -13 8 -10 11 3 3 -5 17 -17 31 -19 21 -17 20 10 -3 17 -17 32 -33 32
-38z m270 -51 c0 -4 -14 9 -32 30 -57 68 -64 80 -16 28 26 -27 48 -54 48 -58z
m-513 71 c-3 -7 -5 -2 -5 12 0 14 2 19 5 13 2 -7 2 -19 0 -25z m-1864 -18 c3
-11 1 -18 -4 -14 -5 3 -9 12 -9 20 0 20 7 17 13 -6z m117 -55 c0 -4 -9 4 -20
18 -11 14 -20 28 -20 32 0 4 9 -4 20 -18 11 -14 20 -28 20 -32z m-120 18 c12
-16 19 -20 16 -10 -10 33 3 17 29 -35 l26 -53 -38 45 c-21 24 -46 53 -55 62
-10 10 -14 18 -9 18 5 0 19 -12 31 -27z m2141 10 c13 -16 12 -17 -3 -4 -17 13
-22 21 -14 21 2 0 10 -8 17 -17z m-264 -25 c-3 -7 -5 -2 -5 12 0 14 2 19 5 13
2 -7 2 -19 0 -25z m215 6 l31 -25 -29 7 c-16 4 -36 11 -44 16 -11 6 -8 7 10 3
24 -6 24 -5 6 9 -11 9 -16 16 -12 16 5 0 22 -11 38 -26z m-486 10 c19 -5 20
-10 13 -75 -11 -102 -13 -104 -70 -117 -82 -19 -83 -19 -76 36 7 59 29 104 68
137 33 27 34 27 65 19z m585 -11 c13 -16 12 -17 -3 -4 -17 13 -22 21 -14 21 2
0 10 -8 17 -17z m-2100 -10 c13 -16 12 -17 -3 -4 -10 7 -18 15 -18 17 0 8 8 3
21 -13z m-7 -33 c14 -22 23 -40 19 -40 -5 0 -18 18 -31 40 -29 52 -22 52 12 0z
m1713 -37 c15 -12 23 -22 16 -22 -6 -1 -18 5 -26 13 -17 18 -32 9 -40 -26 -8
-30 2 -42 23 -26 12 8 12 9 -2 4 -10 -3 -18 -1 -18 4 0 20 17 17 50 -11 19
-15 30 -29 24 -29 -6 0 -17 7 -24 15 -8 10 -17 12 -24 6 -6 -5 -44 -11 -84
-13 -62 -3 -72 -1 -66 12 5 13 23 121 24 142 0 10 114 -43 147 -69z m173 -13
c22 -13 37 -26 35 -28 -2 -2 -18 6 -34 18 -22 15 -31 17 -32 8 -1 -30 -18 30
-17 62 l1 35 4 -35 c3 -29 12 -41 43 -60z m-145 70 c3 -6 -1 -7 -9 -4 -18 7
-21 14 -7 14 6 0 13 -4 16 -10z m68 -13 c4 3 7 -1 7 -10 0 -22 -2 -22 -31 10
-17 20 -18 23 -3 10 11 -9 24 -14 27 -10z m511 7 c3 -8 2 -12 -4 -9 -6 3 -10
10 -10 16 0 14 7 11 14 -7z m-2425 -24 c11 -24 11 -24 -3 -6 -9 11 -16 24 -16
30 0 12 5 7 19 -24z m176 0 l20 -25 -22 19 c-13 11 -23 24 -23 29 0 6 1 8 3 6
1 -2 11 -15 22 -29z m-135 -5 c7 -9 8 -15 2 -15 -5 0 -12 7 -16 15 -3 8 -4 15
-2 15 2 0 9 -7 16 -15z m1990 5 c11 -8 7 -9 -15 -4 -37 8 -45 14 -19 14 10 0
26 -5 34 -10z m198 -25 c-3 -3 -9 2 -12 12 -6 14 -5 15 5 6 7 -7 10 -15 7 -18z
m-2048 -25 c12 -16 19 -30 16 -30 -2 0 -14 14 -26 30 -12 17 -19 30 -16 30 2
0 14 -13 26 -30z m1730 20 c8 -5 11 -10 5 -10 -5 0 -17 5 -25 10 -8 5 -10 10
-5 10 6 0 17 -5 25 -10z m-1850 -16 c0 5 9 1 20 -9 11 -10 20 -22 20 -28 0 -5
-9 1 -20 14 -14 17 -19 20 -20 9 0 -13 -1 -13 -10 0 -5 8 -10 20 -10 25 0 6 5
3 10 -5 5 -8 10 -11 10 -6z m151 -1 c13 -16 12 -17 -3 -4 -17 13 -22 21 -14
21 2 0 10 -8 17 -17z m1926 11 c-3 -3 -12 -4 -19 -1 -8 3 -5 6 6 6 11 1 17 -2
13 -5z m-160 -39 c12 -9 28 -14 35 -13 7 2 12 -3 10 -11 -2 -9 3 -11 15 -7 9
4 14 4 10 0 -4 -4 -1 -14 6 -23 6 -8 -8 -1 -33 15 -25 17 -54 36 -65 42 -11 6
-15 12 -10 12 6 0 20 -7 32 -15z m163 -6 c11 -6 11 -8 2 -9 -7 0 -10 -5 -6
-12 4 -7 3 -8 -5 -4 -6 4 -8 12 -5 18 5 7 2 9 -7 6 -8 -3 -24 1 -34 9 -19 13
-18 14 10 7 17 -4 37 -10 45 -15z m350 1 c6 -11 8 -20 6 -20 -3 0 -10 9 -16
20 -6 11 -8 20 -6 20 3 0 10 -9 16 -20z m-2229 -32 c15 -28 5 -21 -21 15 -15
20 -17 27 -6 18 9 -8 22 -23 27 -33z m1624 14 c-3 -3 3 -15 12 -26 10 -12 2
-8 -17 9 -19 16 -39 33 -45 38 -5 4 5 2 23 -4 18 -6 31 -14 27 -17z m411 -10
c-5 -4 -66 26 -66 33 0 3 16 -3 35 -12 19 -9 33 -18 31 -21z m-2124 13 c3 3
11 -3 19 -12 13 -16 12 -17 -3 -4 -11 8 -18 9 -18 3 0 -6 4 -14 10 -17 11 -7
33 -45 26 -45 -3 0 -20 21 -37 48 -18 26 -26 41 -18 35 9 -7 18 -11 21 -8z
m-41 -12 c13 -16 12 -17 -3 -4 -10 7 -18 15 -18 17 0 8 8 3 21 -13z m1813 9
c3 -5 -1 -9 -9 -9 -8 0 -12 4 -9 9 3 4 7 8 9 8 2 0 6 -4 9 -8z m-853 -55 c21
-18 47 -45 58 -59 l20 -26 -60 -22 c-34 -12 -80 -38 -102 -58 -23 -21 -36 -29
-28 -19 21 26 -6 22 -51 -8 l-37 -25 -51 31 -50 31 23 41 c30 54 103 126 151
148 47 21 70 14 127 -34z m1325 37 c18 -14 18 -14 -6 -3 -31 14 -36 19 -24 19
6 0 19 -7 30 -16z m-2306 -27 c11 3 12 2 2 -4 -10 -8 -8 -19 8 -57 12 -26 20
-54 18 -63 -3 -14 -42 76 -63 142 -6 19 -5 19 7 -1 7 -12 20 -19 28 -17z
m1990 7 c0 -2 -9 0 -20 6 -11 6 -20 13 -20 16 0 2 9 0 20 -6 11 -6 20 -13 20
-16z m230 5 c0 -6 -4 -7 -10 -4 -5 3 -10 11 -10 16 0 6 5 7 10 4 6 -3 10 -11
10 -16z m-2276 -11 c2 -7 8 -24 14 -38 14 -30 102 -249 108 -270 10 -31 -40
67 -63 123 -64 158 -73 182 -73 196 0 17 10 9 14 -11z m107 -5 c13 -16 12 -17
-3 -4 -10 7 -18 15 -18 17 0 8 8 3 21 -13z m2264 -31 c-3 -3 1 -12 8 -21 11
-14 10 -14 -6 -2 -9 8 -15 16 -12 19 3 3 -5 17 -17 31 l-23 26 27 -24 c16 -14
26 -27 23 -29z m-2395 -8 c23 -52 23 -54 12 -54 -5 0 -9 6 -9 13 0 6 -8 29
-17 50 -9 20 -14 37 -11 37 3 0 15 -21 25 -46z m201 29 c13 -16 12 -17 -3 -4
-10 7 -18 15 -18 17 0 8 8 3 21 -13z m75 -20 c15 -20 23 -33 16 -29 -13 8 -56
66 -49 66 3 0 17 -17 33 -37z m1575 15 c24 -8 33 -8 39 1 5 9 9 9 13 -3 4 -9
15 -16 25 -16 21 0 72 -36 72 -50 0 -5 -8 -6 -17 -3 -12 5 -15 2 -11 -9 4 -8
2 -21 -3 -29 -7 -11 -9 -10 -10 6 -1 11 -1 23 0 28 0 4 -4 7 -10 7 -6 0 -9 -7
-5 -15 6 -17 -7 -19 -34 -5 -15 8 -17 6 -13 -10 4 -14 0 -20 -10 -20 -9 0 -17
-6 -20 -12 -2 -7 -2 -3 0 10 2 14 -1 21 -9 20 -20 -4 -28 -21 -16 -35 11 -14
6 -16 -30 -13 -13 1 -30 -4 -38 -10 -11 -10 -14 -10 -14 0 0 6 9 14 20 17 22
6 24 11 10 33 -8 13 -10 13 -10 -1 0 -17 -24 -32 -34 -22 -3 4 -6 13 -6 22 0
14 2 14 10 1 11 -17 13 -10 4 13 -10 26 -83 -19 -84 -50 0 -15 26 -17 35 -3 3
6 -1 7 -10 4 -11 -5 -14 -2 -9 10 7 19 15 20 38 3 41 -30 -11 -87 -58 -66 -20
10 -23 15 -16 30 15 26 12 31 -9 19 -31 -16 -36 -12 -11 10 13 11 19 20 13 20
-13 0 -40 -22 -47 -40 -3 -8 -4 -3 -1 12 6 31 -3 58 -18 58 -7 0 -7 -4 1 -12
16 -16 15 -28 0 -24 -7 1 -10 1 -6 -1 5 -3 4 -12 -1 -21 -5 -9 -9 -21 -9 -27
-1 -14 -32 -19 -32 -5 0 6 7 13 15 16 19 8 20 24 1 24 -8 0 -21 6 -29 14 -11
12 -15 11 -25 -5 -9 -15 -9 -17 2 -13 10 4 14 -1 12 -13 -2 -10 2 -22 8 -26 7
-6 5 -7 -6 -4 -9 3 -19 1 -22 -6 -4 -7 -4 -2 -2 11 2 12 3 22 1 22 -2 0 -12 3
-22 6 -15 6 -16 4 -5 -7 18 -20 15 -33 -4 -14 -13 12 -14 19 -5 28 16 16 14
44 -4 51 -18 7 -20 -5 -3 -22 9 -9 9 -12 0 -12 -7 0 -12 -8 -12 -17 0 -22 -44
-45 -58 -31 -5 5 -27 11 -48 12 -22 1 -44 5 -51 9 -6 4 -13 1 -16 -5 -2 -7
-11 1 -20 18 -9 17 -13 35 -9 39 4 5 1 5 -7 0 -9 -5 -12 -3 -9 6 4 13 114 50
193 65 31 5 35 4 35 -15 0 -30 16 -26 28 7 9 25 17 30 78 40 38 7 83 14 99 16
46 6 170 -3 206 -16z m275 -9 c3 -6 -5 -3 -20 6 -14 10 -26 19 -26 22 0 7 39
-17 46 -28z m229 11 c10 -11 16 -20 13 -20 -3 0 -13 9 -23 20 -10 11 -16 20
-13 20 3 0 13 -9 23 -20z m111 -11 c3 -6 -5 -3 -20 6 -14 10 -26 19 -26 22 0
7 39 -17 46 -28z m-441 -7 c34 -30 25 -27 -19 6 -16 12 -25 22 -20 22 5 0 23
-13 39 -28z m86 -24 c6 -11 8 -22 5 -26 -3 -3 -6 -1 -6 5 0 6 -15 25 -32 43
-31 31 -31 32 -5 15 15 -10 32 -27 38 -37z m249 0 c0 -13 -5 -9 -31 19 l-24
26 27 -19 c15 -10 28 -22 28 -26z m175 22 c3 -5 1 -10 -4 -10 -6 0 -11 5 -11
10 0 6 2 10 4 10 3 0 8 -4 11 -10z m-1945 -46 c0 -3 -13 4 -30 16 -16 12 -30
24 -30 26 0 3 14 -4 30 -16 17 -12 30 -24 30 -26z m1906 -29 c-2 -5 4 -19 13
-30 9 -10 -8 0 -37 24 -29 24 -50 46 -47 49 2 3 -1 12 -8 21 -6 8 9 -1 35 -20
26 -19 46 -38 44 -44z m39 50 c6 0 11 -4 12 -8 2 -4 15 -19 30 -33 17 -15 6
-10 -27 12 -64 43 -86 63 -50 43 14 -8 30 -14 35 -14z m-2372 -39 c4 4 7 5 7
1 0 -3 -4 -8 -10 -12 -8 -5 -41 44 -40 62 1 4 9 -7 18 -25 10 -18 21 -30 25
-26z m2217 -13 c0 -7 -58 36 -66 49 -4 7 9 -1 29 -16 20 -16 37 -30 37 -33z
m-2045 -41 c-5 -6 -75 71 -75 83 0 5 18 -10 39 -35 21 -25 38 -47 36 -48z
m1760 68 c3 -5 2 -10 -4 -10 -5 0 -13 5 -16 10 -3 6 -2 10 4 10 5 0 13 -4 16
-10z m216 -7 c13 -17 13 -17 -6 -3 -11 8 -22 16 -24 17 -2 2 0 3 6 3 6 0 17
-8 24 -17z m144 -37 c6 -4 1 -4 -10 2 -11 6 -29 21 -40 34 -19 22 -19 22 10
-2 17 -14 35 -29 40 -34z m-1830 24 c10 -11 16 -20 13 -20 -3 0 -13 9 -23 20
-10 11 -16 20 -13 20 3 0 13 -9 23 -20z m-272 -15 c23 -32 17 -32 -13 0 -13
14 -19 25 -14 25 5 0 17 -12 27 -25z m-313 -21 c0 -15 -43 -10 -48 5 -3 9 2
11 17 6 17 -5 20 -3 15 12 -5 15 -4 16 5 3 6 -8 11 -20 11 -26z m2304 28 c3
-5 -1 -9 -9 -9 -8 0 -12 4 -9 9 3 4 7 8 9 8 2 0 6 -4 9 -8z m-2048 -88 c19
-24 26 -41 18 -41 -7 0 -12 3 -11 6 1 3 -12 26 -29 51 -34 50 -55 89 -27 50
10 -13 32 -43 49 -66z m1640 59 c-7 -7 -26 7 -26 19 0 6 6 6 15 -2 9 -7 13
-15 11 -17z m548 -27 c34 -8 31 -16 -4 -9 -14 2 -41 18 -60 35 l-35 30 35 -24
c19 -14 48 -28 64 -32z m92 -9 c2 -13 -2 -15 -16 -7 -11 6 -22 16 -26 23 -5 9
-4 9 7 0 7 -7 18 -13 24 -13 5 0 -6 14 -25 32 l-35 31 34 -25 c19 -13 35 -32
37 -41z m-1453 28 c-10 -13 -24 -22 -32 -20 -8 3 -11 0 -8 -9 4 -11 -1 -14
-21 -13 -18 2 -35 -6 -51 -23 -13 -14 -18 -17 -11 -8 6 9 9 22 6 27 -8 12 79
58 132 70 2 1 -5 -10 -15 -24z m1263 4 c19 -22 19 -22 -3 -8 -13 8 -23 17 -23
21 0 12 6 9 26 -13z m-2242 -30 c-11 -18 -25 -8 -19 12 5 16 4 19 -5 14 -9 -6
-11 -4 -5 5 6 10 11 9 21 -5 7 -10 11 -22 8 -26z m178 -11 c18 -23 28 -39 21
-35 -6 4 -26 26 -45 49 -18 23 -28 39 -21 35 6 -4 26 -26 45 -49z m1868 42 c8
-5 11 -10 5 -10 -5 0 -17 5 -25 10 -8 5 -10 10 -5 10 6 0 17 -5 25 -10z m-999
-22 c11 -21 11 -22 -4 -9 -10 7 -17 10 -17 5 0 -5 -10 -20 -21 -34 -19 -23
-19 -21 2 18 12 23 24 42 25 42 2 0 9 -10 15 -22z m799 17 c0 -7 -30 -13 -34
-7 -3 4 4 9 15 9 10 1 19 0 19 -2z m-1790 -25 c6 -11 8 -20 6 -20 -3 0 -10 9
-16 20 -6 11 -8 20 -6 20 3 0 10 -9 16 -20z m206 -12 l29 -33 -32 29 c-31 28
-38 36 -30 36 2 0 16 -15 33 -32z m308 16 c9 -24 2 -26 -12 -4 -7 11 -8 20 -3
20 5 0 12 -7 15 -16z m-643 -44 c10 -22 16 -40 14 -40 -2 0 -10 -3 -19 -6 -9
-3 -16 -1 -16 6 0 6 5 8 10 5 14 -9 12 7 -6 51 -21 50 -7 37 17 -16z m294 30
c10 -11 14 -20 9 -20 -5 0 -15 9 -22 20 -7 11 -11 20 -9 20 2 0 12 -9 22 -20z
m2079 -9 c-2 -3 -12 3 -22 13 -16 17 -16 18 5 5 12 -7 20 -15 17 -18z m-106
-35 c10 -12 0 -8 -23 9 -56 40 -66 51 -27 29 18 -10 41 -28 50 -38z m-408 24
c-14 -11 -29 -20 -35 -20 -5 0 4 9 20 20 38 25 48 25 15 0z m635 -18 c-6 -6
-40 14 -43 26 -2 9 5 7 22 -5 13 -10 23 -19 21 -21z m-2525 17 c0 -9 -32 -17
-47 -12 -24 8 -13 19 17 18 17 0 30 -3 30 -6z m1400 0 c0 -5 -5 -7 -11 -3 -6
3 -15 0 -20 -7 -7 -11 -9 -10 -9 4 0 10 8 17 20 17 11 0 20 -5 20 -11z m-1290
-9 c0 -5 -2 -10 -4 -10 -3 0 -8 5 -11 10 -3 6 -1 10 4 10 6 0 11 -4 11 -10z
m652 -7 c18 -10 35 -19 37 -21 6 -3 -81 -92 -91 -92 -4 0 12 19 37 43 l44 43
-35 19 c-30 16 -37 17 -45 4 -5 -7 -9 -9 -9 -3 0 28 18 30 62 7z m421 10 c-7
-2 -19 -2 -25 0 -7 3 -2 5 12 5 14 0 19 -2 13 -5z m774 1 c-3 -3 -12 -4 -19
-1 -8 3 -5 6 6 6 11 1 17 -2 13 -5z m453 -4 c8 -5 11 -10 5 -10 -5 0 -17 5
-25 10 -8 5 -10 10 -5 10 6 0 17 -5 25 -10z m-2049 -17 c13 -16 12 -17 -3 -4
-17 13 -22 21 -14 21 2 0 10 -8 17 -17z m306 -5 c-3 -8 -6 -5 -6 6 -1 11 2 17
5 13 3 -3 4 -12 1 -19z m251 2 c-7 -10 -14 -17 -17 -15 -4 4 18 35 25 35 2 0
-1 -9 -8 -20z m657 10 c3 -6 -1 -7 -9 -4 -18 7 -21 14 -7 14 6 0 13 -4 16 -10z
m118 -11 c-8 -8 -13 -7 -18 2 -5 8 -4 10 3 5 7 -4 12 -2 12 5 0 7 3 9 7 6 4
-4 2 -12 -4 -18z m141 13 c3 -5 -14 -26 -37 -48 -39 -36 -40 -37 -9 -4 17 20
32 41 32 48 0 14 7 16 14 4z m261 2 c-47 -7 -113 -8 -108 -1 2 4 32 6 66 6 34
-1 53 -3 42 -5z m140 -12 c-3 -3 -11 0 -18 7 -9 10 -8 11 6 5 10 -3 15 -9 12
-12z m-1381 -16 c-3 -9 -10 -13 -15 -10 -5 3 -3 11 4 19 15 16 19 13 11 -9z
m1066 14 c-35 -24 -54 -31 -30 -11 14 11 30 21 35 21 6 0 3 -5 -5 -10z m535 0
c3 -6 -1 -7 -9 -4 -18 7 -21 14 -7 14 6 0 13 -4 16 -10z m-2240 -26 c9 -15 12
-23 6 -20 -11 7 -35 46 -28 46 3 0 12 -12 22 -26z m250 -22 c11 -6 14 -12 8
-12 -7 0 -25 12 -41 28 -15 15 -19 20 -7 11 11 -9 29 -21 40 -27z m1953 21
c15 -16 19 -21 7 -12 -11 9 -29 21 -40 27 -11 6 -14 12 -8 12 7 0 25 -12 41
-27z m-2279 -33 c0 -9 -6 -4 -14 10 -19 33 -19 49 0 24 8 -10 14 -26 14 -34z
m558 3 c-3 -10 -5 -2 -5 17 0 19 2 27 5 18 2 -10 2 -26 0 -35z m246 32 c-3 -9
-8 -14 -10 -11 -3 3 -2 9 2 15 9 16 15 13 8 -4z m97 0 c-7 -8 -10 -22 -6 -30
3 -8 1 -15 -4 -15 -14 0 -12 34 2 48 17 17 23 15 8 -3z m910 11 c0 -2 -7 -7
-16 -10 -8 -3 -12 -2 -9 4 6 10 25 14 25 6z m391 -13 c13 -16 12 -17 -3 -4
-10 7 -18 15 -18 17 0 8 8 3 21 -13z m-2037 -9 c3 -8 2 -12 -4 -9 -6 3 -10 10
-10 16 0 14 7 11 14 -7z m34 -9 c-3 -3 -9 2 -12 12 -6 14 -5 15 5 6 7 -7 10
-15 7 -18z m82 -10 c19 -19 32 -35 29 -35 -3 0 -20 16 -39 35 -19 19 -32 35
-29 35 3 0 20 -16 39 -35z m237 -2 c-3 -10 -5 -4 -5 12 0 17 2 24 5 18 2 -7 2
-21 0 -30z m1426 30 c-7 -2 -21 -2 -30 0 -10 3 -4 5 12 5 17 0 24 -2 18 -5z
m163 -45 c4 -7 -9 1 -29 16 -20 16 -37 30 -37 33 0 7 58 -36 66 -49z m-2231
24 c-3 -3 -11 0 -18 7 -9 10 -8 11 6 5 10 -3 15 -9 12 -12z m72 -46 c22 -45
28 -67 21 -77 -8 -12 -9 -12 -5 1 5 18 -32 92 -42 85 -4 -2 -7 6 -7 18 1 13
-4 21 -11 20 -7 -2 -13 2 -13 7 0 29 29 2 57 -54z m984 32 c-3 -21 -6 -26 -9
-15 -3 17 3 47 11 47 2 0 1 -15 -2 -32z m944 22 c-28 -12 -37 -12 -30 0 3 6
16 10 28 9 21 0 21 -1 2 -9z m-1142 -15 c-3 -9 -8 -14 -10 -11 -3 3 -2 9 2 15
9 16 15 13 8 -4z m986 13 c-2 -2 -20 -16 -39 -33 l-35 -30 29 33 c17 17 34 32
40 32 5 0 7 -1 5 -2z m26 -18 c-10 -11 -21 -18 -23 -15 -3 3 3 12 14 20 27 20
30 18 9 -5z m85 10 c0 -5 -6 -10 -13 -10 -7 0 -28 -15 -47 -32 -26 -26 -31
-28 -21 -10 7 13 27 32 44 42 37 23 37 23 37 10z m375 -30 c21 -22 37 -40 34
-40 -3 0 -23 18 -44 40 -21 22 -37 40 -34 40 3 0 23 -18 44 -40z m76 -45 c18
-25 16 -25 -10 5 -17 19 -36 44 -42 55 -12 24 21 -14 52 -60z m-2220 48 c13
-16 12 -17 -3 -4 -10 7 -18 15 -18 17 0 8 8 3 21 -13z m112 -26 c-3 -20 -9
-37 -13 -37 -4 0 -3 18 2 40 13 50 20 48 11 -3z m327 6 c-1 -28 -3 -34 -10
-22 -8 14 -3 59 6 59 2 0 4 -17 4 -37z m1908 -16 c20 -12 30 -23 24 -25 -13
-4 -112 59 -112 71 0 5 12 1 27 -8 14 -10 42 -27 61 -38z m-2056 34 c-8 -4
-14 -12 -14 -17 0 -5 -6 -20 -14 -34 l-14 -25 6 30 c8 35 22 55 38 55 7 0 6
-4 -2 -9z m1659 -5 c104 -44 217 -226 248 -400 36 -198 -10 -321 -133 -359
-71 -23 -112 -16 -197 33 -103 61 -167 168 -205 344 -19 87 -12 217 16 280 19
46 70 92 117 106 44 13 118 11 154 -4z m-1560 -19 c-10 -9 -11 -8 -5 6 3 10 9
15 12 12 3 -3 0 -11 -7 -18z m227 -2 c1 -13 -2 -26 -7 -30 -5 -3 -7 5 -4 17 5
23 5 23 -11 3 -18 -20 -11 -1 7 23 12 16 12 16 15 -13z m216 10 c-4 -8 -10
-39 -15 -68 l-8 -52 4 57 c3 53 10 78 20 78 3 0 2 -7 -1 -15z m-876 -20 c-3
-3 -9 2 -12 12 -6 14 -5 15 5 6 7 -7 10 -15 7 -18z m113 8 c13 -16 12 -17 -3
-4 -10 7 -18 15 -18 17 0 8 8 3 21 -13z m294 -4 c-5 -16 -4 -19 5 -14 14 9 14
9 -32 -64 -15 -25 -28 -42 -28 -38 0 14 26 63 39 73 8 6 11 16 7 22 -3 5 -3
17 0 26 9 24 16 19 9 -5z m141 -26 c-3 -4 -6 0 -6 8 0 11 -2 11 -10 -1 -7 -12
-10 -8 -10 15 l0 29 16 -22 c9 -13 13 -26 10 -29z m1044 43 c0 -3 -4 -8 -10
-11 -5 -3 -10 -1 -10 4 0 6 5 11 10 11 6 0 10 -2 10 -4z m-1685 -16 c-4 -6 -1
-19 6 -28 10 -13 8 -12 -9 2 -17 15 -19 22 -10 28 17 10 20 10 13 -2z m160 0
c3 -6 -1 -7 -9 -4 -18 7 -21 14 -7 14 6 0 13 -4 16 -10z m528 -5 c-3 -9 -8
-14 -10 -11 -3 3 -2 9 2 15 9 16 15 13 8 -4z m1567 -20 c19 -19 32 -35 29 -35
-3 0 -20 16 -39 35 -19 19 -32 35 -29 35 3 0 20 -16 39 -35z m-1887 10 c-3 -9
-8 -14 -10 -11 -3 3 -2 9 2 15 9 16 15 13 8 -4z m177 -14 c-5 -11 -15 -23 -21
-27 -6 -3 -3 5 6 20 20 30 30 35 15 7z m1154 -6 c-9 -14 -18 -25 -21 -25 -5 0
5 18 20 38 17 22 18 13 1 -13z m78 -2 c-3 -16 -7 -22 -10 -15 -4 13 4 42 11
42 2 0 2 -12 -1 -27z m-1215 -45 c-2 -13 -4 -5 -4 17 -1 22 1 32 4 23 2 -10 2
-28 0 -40z m111 21 c-6 -16 -13 -28 -15 -25 -8 8 6 56 17 56 5 0 5 -13 -2 -31z
m1691 -15 c12 -19 17 -33 12 -30 -5 3 -18 22 -30 42 -12 19 -17 33 -12 30 5
-3 18 -22 30 -42z m387 -60 c30 -9 53 -18 51 -20 -1 -2 -33 2 -70 8 -37 6 -65
13 -62 16 3 3 -24 22 -60 42 -99 55 -99 65 -1 15 48 -24 112 -51 142 -61z
m-2576 70 c0 -2 -9 0 -20 6 -11 6 -20 13 -20 16 0 2 9 0 20 -6 11 -6 20 -13
20 -16z m453 6 c-3 -12 -8 -19 -11 -16 -5 6 5 36 12 36 2 0 2 -9 -1 -20z m78
-11 c-5 -13 -10 -19 -10 -12 -1 15 10 45 15 40 3 -2 0 -15 -5 -28z m930 8
c-10 -9 -11 -8 -5 6 3 10 9 15 12 12 3 -3 0 -11 -7 -18z m-1530 -4 c13 -16 12
-17 -3 -4 -10 7 -18 15 -18 17 0 8 8 3 21 -13z m256 -5 c-3 -8 -6 -5 -6 6 -1
11 2 17 5 13 3 -3 4 -12 1 -19z m46 7 c-3 -9 -8 -14 -10 -11 -3 3 -2 9 2 15 9
16 15 13 8 -4z m787 -10 c22 -14 40 -28 40 -30 0 -3 -17 5 -37 18 -21 13 -45
26 -53 30 -10 3 -10 6 -2 6 7 1 30 -10 52 -24z m-1102 -20 c15 -14 22 -25 16
-25 -6 0 -21 11 -34 25 -13 14 -20 25 -16 25 4 0 19 -11 34 -25z m113 8 c13
-16 12 -17 -3 -4 -10 7 -18 15 -18 17 0 8 8 3 21 -13z m309 7 c0 -5 -5 -10
-11 -10 -5 0 -7 5 -4 10 3 6 8 10 11 10 2 0 4 -4 4 -10z m287 -37 c-3 -10 -5
-2 -5 17 0 19 2 27 5 18 2 -10 2 -26 0 -35z m864 24 c-10 -9 -11 -8 -5 6 3 10
9 15 12 12 3 -3 0 -11 -7 -18z m651 -1 c4 3 9 1 12 -4 3 -6 -1 -9 -10 -8 -9 1
-21 11 -26 22 -9 18 -8 18 5 2 8 -10 16 -15 19 -12z m193 14 c3 -6 -1 -7 -9
-4 -18 7 -21 14 -7 14 6 0 13 -4 16 -10z m-748 -62 c-2 -13 -4 -3 -4 22 0 25
2 35 4 23 2 -13 2 -33 0 -45z m647 46 c3 -8 2 -12 -4 -9 -6 3 -10 10 -10 16 0
14 7 11 14 -7z m-2452 -1 c-6 -2 -10 -8 -8 -12 3 -4 -1 -8 -9 -8 -8 0 -15 4
-15 8 0 8 19 17 35 17 6 0 4 -2 -3 -5z m81 0 c-7 -2 -19 -2 -25 0 -7 3 -2 5
12 5 14 0 19 -2 13 -5z m887 -3 c0 -5 -10 -10 -22 -9 -22 0 -22 1 -3 9 11 5
21 9 23 9 1 1 2 -3 2 -9z m95 0 c-3 -5 -12 -10 -18 -10 -7 0 -6 4 3 10 19 12
23 12 15 0z m161 -11 c36 -22 47 -37 15 -20 -10 6 -22 7 -26 3 -5 -4 -5 -2 -1
5 7 12 -5 17 -64 26 -19 3 -17 5 9 6 19 0 48 -8 67 -20z m1416 -80 c-1 -6 2
-8 7 -4 6 3 34 -6 63 -21 121 -61 177 -76 288 -78 114 -1 152 10 246 74 41 27
44 28 33 7 -18 -35 -41 -57 -52 -50 -6 4 -8 0 -5 -9 4 -10 -10 -31 -40 -59
l-47 -44 40 43 c29 31 35 42 22 42 -9 0 -17 -5 -17 -11 0 -5 -5 -7 -10 -4 -6
4 -17 1 -25 -5 -8 -6 -20 -8 -26 -4 -7 4 -9 3 -6 -3 6 -10 -18 -23 -72 -39
-34 -9 -193 -6 -203 4 -5 5 38 9 94 9 57 0 113 4 125 9 15 6 -16 9 -92 9 -78
0 -118 4 -126 13 -7 6 -21 12 -31 12 -35 0 -170 77 -236 135 -13 11 -33 33
-44 48 -18 25 -12 23 48 -18 38 -26 68 -51 66 -56z m-1950 69 c-7 -7 -12 -8
-12 -2 0 14 12 26 19 19 2 -3 -1 -11 -7 -17z m423 12 c-3 -5 -12 -10 -18 -10
-7 0 -6 4 3 10 19 12 23 12 15 0z m-831 -37 c-34 -46 -50 -64 -39 -43 13 24
55 80 61 80 3 0 -7 -17 -22 -37z m66 34 c0 -2 -10 -12 -22 -23 l-23 -19 19 23
c18 21 26 27 26 19z m111 -20 c-10 -9 -11 -8 -5 6 3 10 9 15 12 12 3 -3 0 -11
-7 -18z m176 -29 c-2 -13 -4 -5 -4 17 -1 22 1 32 4 23 2 -10 2 -28 0 -40z
m258 42 c-3 -5 -12 -10 -18 -10 -7 0 -6 4 3 10 19 12 23 12 15 0z m441 -21 c3
-6 -5 -3 -20 6 -14 10 -26 19 -26 22 0 7 39 -17 46 -28z m355 8 c-10 -9 -11
-8 -5 6 3 10 9 15 12 12 3 -3 0 -11 -7 -18z m-1626 3 c3 -6 -1 -7 -9 -4 -18 7
-21 14 -7 14 6 0 13 -4 16 -10z m146 -13 c-10 -9 -11 -8 -5 6 3 10 9 15 12 12
3 -3 0 -11 -7 -18z m2159 -30 c0 -12 0 -11 -24 28 l-17 30 20 -24 c12 -13 21
-28 21 -34z m110 18 c0 -5 -5 -3 -10 5 -5 8 -10 20 -10 25 0 6 5 3 10 -5 5 -8
10 -19 10 -25z m-2376 19 c13 -5 12 -9 -9 -26 -25 -19 -45 -17 -45 5 0 8 4 7
9 -2 8 -12 12 -13 26 -1 13 10 13 15 3 21 -15 10 -6 12 16 3z m721 -4 c3 -5 1
-10 -4 -10 -6 0 -11 5 -11 10 0 6 2 10 4 10 3 0 8 -4 11 -10z m-38 -22 c-3 -8
-6 -5 -6 6 -1 11 2 17 5 13 3 -3 4 -12 1 -19z m178 12 c-11 -5 -31 -8 -45 -8
-23 0 -22 1 5 8 42 11 65 11 40 0z m136 -20 c6 0 7 4 4 10 -3 5 0 7 8 4 7 -2
14 -11 14 -18 0 -11 -7 -12 -29 -4 -16 6 -28 17 -28 26 1 15 2 15 11 0 5 -10
15 -18 20 -18z m90 13 c13 -16 12 -17 -3 -4 -10 7 -18 15 -18 17 0 8 8 3 21
-13z m228 -101 l56 -54 -60 52 c-33 28 -79 63 -102 78 -23 15 -42 31 -43 35 0
13 86 -52 149 -111z m-1029 104 c0 -2 -7 -7 -16 -10 -8 -3 -12 -2 -9 4 6 10
25 14 25 6z m111 -19 c-10 -9 -11 -8 -5 6 3 10 9 15 12 12 3 -3 0 -11 -7 -18z
m874 3 c10 -11 16 -20 13 -20 -3 0 -13 9 -23 20 -10 11 -16 20 -13 20 3 0 13
-9 23 -20z m1091 -48 c-4 -3 -6 1 -6 9 0 11 -2 12 -9 1 -7 -11 -9 -10 -14 3
-5 10 -3 14 5 9 7 -5 9 2 5 22 -6 27 -5 27 9 -5 8 -18 13 -36 10 -39z m-2464
46 c6 -17 -16 -38 -39 -37 -15 0 -14 2 5 9 26 11 30 32 5 24 -15 -5 -16 -4 -3
5 20 14 27 14 32 -1z m188 9 c0 -1 -30 -32 -67 -67 l-68 -65 65 68 c60 62 70
72 70 64z m215 -37 c-17 -17 -31 -26 -33 -20 -2 5 -11 10 -20 10 -10 0 -13 -3
-6 -8 6 -4 -3 -18 -25 -37 -35 -28 -35 -28 -12 -2 28 31 21 35 -17 9 -15 -10
-34 -22 -42 -27 -30 -16 5 12 60 48 39 27 56 33 62 24 5 -9 13 -6 30 11 34 33
36 27 3 -8z m165 -98 c-5 -18 -7 0 -7 53 -1 76 0 78 7 27 4 -29 5 -65 0 -80z
m175 98 c-31 -32 -48 -39 -39 -15 4 8 10 13 14 10 4 -2 15 4 25 15 10 11 20
20 23 20 3 0 -7 -13 -23 -30z m509 -9 c-3 -3 -15 6 -27 18 l-22 24 27 -19 c14
-10 24 -21 22 -23z m553 2 c-3 -10 -5 -4 -5 12 0 17 2 24 5 18 2 -7 2 -21 0
-30z m693 2 c0 -5 -5 -3 -10 5 -5 8 -10 20 -10 25 0 6 5 3 10 -5 5 -8 10 -19
10 -25z m-1830 21 c0 -3 -4 -8 -10 -11 -5 -3 -10 -1 -10 4 0 6 5 11 10 11 6 0
10 -2 10 -4z m543 -34 c23 -25 6 -38 -20 -14 -10 9 -14 14 -9 10 26 -21 27 -4
1 18 -16 14 -21 21 -10 16 11 -6 28 -19 38 -30z m454 6 c-3 -7 -5 -2 -5 12 0
14 2 19 5 13 2 -7 2 -19 0 -25z m-1557 18 c0 -2 -8 -10 -17 -17 -16 -13 -17
-12 -4 4 13 16 21 21 21 13z m373 -11 c-3 -9 -8 -14 -10 -11 -3 3 -2 9 2 15 9
16 15 13 8 -4z m588 3 c39 -13 150 -85 194 -125 78 -71 136 -196 151 -321 5
-47 2 -76 -15 -130 -11 -38 -28 -75 -36 -82 -8 -7 -15 -20 -15 -29 -1 -21 -16
-39 -70 -82 -66 -53 -97 -66 -187 -79 -82 -11 -122 -6 -191 22 -30 12 -35 11
-47 -5 -12 -16 -16 -15 -60 16 -26 18 -59 48 -73 67 -23 31 -21 30 24 -11 61
-58 104 -82 104 -60 0 5 -16 19 -35 31 -50 31 -120 127 -144 196 -47 139 -32
337 33 461 20 38 41 61 78 83 87 54 212 75 289 48z m419 -76 c0 -7 -85 71 -89
82 -2 5 17 -10 43 -34 25 -24 46 -45 46 -48z m-875 69 c3 -5 2 -12 -3 -15 -5
-3 -9 1 -9 9 0 17 3 19 12 6z m1015 -6 c0 -8 -4 -15 -10 -15 -5 0 -7 7 -4 15
4 8 8 15 10 15 2 0 4 -7 4 -15z m-1461 -12 c-8 -10 -18 -21 -22 -24 -5 -3 -8
-10 -8 -14 1 -5 -6 -10 -15 -11 -11 -2 -6 9 17 32 35 36 50 45 28 17z m251 13
c0 -2 -8 -10 -17 -17 -16 -13 -17 -12 -4 4 13 16 21 21 21 13z m-368 -55 c-15
-21 -29 -37 -30 -36 -6 6 32 65 41 65 4 0 5 5 1 12 -4 7 -3 8 4 4 8 -4 2 -19
-16 -45z m170 8 c-22 -25 -22 -24 -9 11 6 17 14 25 18 18 4 -6 -1 -19 -9 -29z
m1059 24 c13 -16 12 -17 -3 -4 -10 7 -18 15 -18 17 0 8 8 3 21 -13z m1137 -11
c8 -23 7 -29 -4 -29 -10 0 -12 7 -8 20 4 13 2 17 -5 13 -7 -5 -9 -1 -5 8 8 22
11 20 22 -12z m-1958 -3 c-12 -22 -31 -21 -38 2 -3 11 -2 11 7 -1 10 -13 13
-13 22 3 14 24 22 21 9 -4z m77 -11 c-3 -8 -6 -5 -6 6 -1 11 2 17 5 13 3 -3 4
-12 1 -19z m86 15 c-16 -6 -17 -33 -2 -33 5 0 7 -5 3 -11 -5 -8 -10 -6 -16 5
-12 21 -3 46 14 45 10 0 10 -2 1 -6z m633 -19 c1 -9 0 -13 -4 -10 -3 4 -7 14
-8 22 -1 9 0 13 4 10 3 -4 7 -14 8 -22z m401 4 c-3 -8 -6 -5 -6 6 -1 11 2 17
5 13 3 -3 4 -12 1 -19z m-1279 -2 c-8 -6 -27 -42 -42 -81 -16 -38 -32 -74 -38
-80 -9 -9 7 37 46 131 10 23 24 41 33 41 14 0 14 -2 1 -11z m295 -1 c-3 -9 -8
-14 -10 -11 -3 3 -2 9 2 15 9 16 15 13 8 -4z m1807 -32 c-11 -17 -11 -17 -6 0
3 10 6 24 7 30 0 9 2 9 5 0 3 -7 0 -20 -6 -30z m-2064 15 c4 -6 3 -8 -4 -4 -6
3 -15 -2 -21 -11 -6 -10 -11 -13 -11 -7 0 9 19 34 26 34 2 0 6 -5 10 -12z
m1391 -10 c-3 -8 -6 -5 -6 6 -1 11 2 17 5 13 3 -3 4 -12 1 -19z m-1810 -10
c-3 -8 -6 -5 -6 6 -1 11 2 17 5 13 3 -3 4 -12 1 -19z m299 -42 c-14 -31 -28
-56 -31 -56 -3 0 -1 9 5 19 18 34 11 36 -22 5 l-33 -29 29 32 c16 18 33 30 38
27 5 -3 8 0 7 7 -3 14 22 61 29 55 1 -2 -8 -29 -22 -60z m1005 32 l22 -33 -27
27 c-24 25 -32 38 -22 38 3 0 15 -15 27 -32z m-1201 19 c0 -2 -12 -14 -27 -28
l-28 -24 24 28 c23 25 31 32 31 24z m440 -17 c0 -11 -4 -20 -9 -20 -5 0 -7 9
-4 20 3 11 7 20 9 20 2 0 4 -9 4 -20z m136 -22 c-19 -27 -21 -19 -4 18 7 14
14 21 16 15 2 -6 -4 -21 -12 -33z m849 22 c10 -11 16 -20 13 -20 -3 0 -13 9
-23 20 -10 11 -16 20 -13 20 3 0 13 -9 23 -20z m905 10 c0 -5 -2 -10 -4 -10
-3 0 -8 5 -11 10 -3 6 -1 10 4 10 6 0 11 -4 11 -10z m-2150 -3 c0 -1 -24 -25
-52 -52 l-53 -50 50 53 c46 48 55 57 55 49z m3105 -53 c-14 -31 -25 -58 -25
-61 0 -2 -5 -1 -11 3 -6 3 -27 -9 -47 -28 -43 -41 -139 -107 -127 -88 5 8 3
11 -6 8 -8 -3 -14 -10 -14 -16 0 -17 -68 -57 -73 -43 -2 6 -8 11 -14 11 -6 0
-8 -7 -4 -15 5 -13 -5 -20 -26 -16 -5 0 -8 -3 -8 -9 0 -5 -4 -10 -10 -10 -5 0
-7 7 -3 16 5 14 3 15 -18 4 -20 -11 -22 -11 -13 1 14 16 0 33 -27 35 -12 1
-15 -5 -11 -20 3 -11 10 -24 16 -28 7 -5 7 -11 1 -17 -13 -13 -97 -32 -89 -20
3 5 15 9 27 9 37 0 51 14 38 39 -14 25 -24 26 -45 5 -16 -15 -18 -13 -20 15
-1 8 -8 16 -16 18 -9 3 -11 1 -5 -4 6 -4 11 -24 12 -43 0 -19 -1 -27 -4 -17
-2 9 -12 17 -21 17 -15 0 -15 -2 -2 -10 13 -8 12 -10 -2 -10 -10 0 -18 6 -18
14 0 8 -3 23 -7 33 -6 17 -5 17 16 -1 18 -17 21 -17 15 -3 -3 9 -11 17 -18 17
-6 0 -2 7 8 15 11 8 15 15 10 15 -6 0 -20 -9 -32 -20 -12 -12 -22 -16 -22 -10
0 5 -4 10 -8 10 -18 0 -6 -53 13 -61 14 -5 15 -8 5 -9 -8 -1 3 -8 25 -16 40
-14 40 -14 5 -9 -26 4 -46 18 -80 57 -24 28 -45 59 -45 67 0 9 -10 20 -22 26
-32 14 -29 27 5 18 15 -5 95 -8 177 -8 136 0 157 3 233 28 104 34 130 47 221
113 40 30 77 54 82 54 5 0 -2 -25 -16 -56z m-3277 19 c-16 -39 -32 -54 -18
-19 12 33 19 46 25 46 3 0 -1 -12 -7 -27z m73 4 c-10 -9 -11 -8 -5 6 3 10 9
15 12 12 3 -3 0 -11 -7 -18z m1466 -69 c-2 -18 -4 -4 -4 32 0 36 2 50 4 33 2
-18 2 -48 0 -65z m-1624 61 c-8 -8 -13 -7 -18 2 -5 8 -4 10 3 5 7 -4 12 -2 12
5 0 7 3 9 7 6 4 -4 2 -12 -4 -18z m104 -36 c-14 -27 -33 -73 -43 -103 -16 -51
-44 -95 -44 -71 0 5 5 13 10 16 6 3 10 12 10 20 0 18 82 197 87 191 2 -2 -7
-26 -20 -53z m241 32 c-6 -14 -13 -23 -15 -21 -5 5 15 46 22 46 3 0 -1 -11 -7
-25z m992 4 c0 -6 -4 -7 -10 -4 -5 3 -10 11 -10 16 0 6 5 7 10 4 6 -3 10 -11
10 -16z m180 -36 c30 -32 43 -47 28 -34 -15 13 -32 20 -39 16 -8 -6 -10 -4 -4
4 4 8 -4 24 -21 42 -15 16 -26 29 -23 29 3 0 29 -26 59 -57z m-980 32 c0 -2
-9 -9 -20 -15 -12 -6 -20 -7 -20 -1 0 5 8 12 18 14 9 3 18 5 20 6 1 0 2 -1 2
-4z m1024 -31 c20 -20 36 -43 35 -52 0 -14 -2 -14 -6 -2 -3 8 -22 32 -41 53
-46 47 -36 49 12 1z m923 -11 c-3 -10 -5 -4 -5 12 0 17 2 24 5 18 2 -7 2 -21
0 -30z m30 15 c-3 -8 -6 -5 -6 6 -1 11 2 17 5 13 3 -3 4 -12 1 -19z m-1157 -8
c6 -11 8 -20 6 -20 -3 0 -10 9 -16 20 -6 11 -8 20 -6 20 3 0 10 -9 16 -20z
m-1228 -22 c-8 -8 -9 -4 -5 13 4 13 8 18 11 10 2 -7 -1 -18 -6 -23z m348 19
c0 -2 -10 -12 -22 -23 l-23 -19 19 23 c18 21 26 27 26 19z m70 -1 c0 -2 -7 -7
-16 -10 -8 -3 -12 -2 -9 4 6 10 25 14 25 6z m23 -16 c-3 -11 -7 -20 -9 -20 -2
0 -4 9 -4 20 0 11 4 20 9 20 5 0 7 -9 4 -20z m-527 -27 c-8 -15 -15 -25 -16
-21 0 12 23 58 27 54 3 -2 -2 -17 -11 -33z m144 14 c0 -2 -15 -16 -32 -33
l-33 -29 29 33 c28 30 36 37 36 29z m323 -12 c-3 -9 -8 -14 -10 -11 -3 3 -2 9
2 15 9 16 15 13 8 -4z m-396 -27 c-11 -15 -22 -28 -23 -28 -1 0 3 13 8 28 6
16 17 29 24 29 8 0 5 -10 -9 -29z m436 2 c-3 -12 -8 -19 -11 -16 -5 6 5 36 12
36 2 0 2 -9 -1 -20z m847 0 c6 -11 8 -20 6 -20 -3 0 -10 9 -16 20 -6 11 -8 20
-6 20 3 0 10 -9 16 -20z m1590 10 c-8 -5 -22 -9 -30 -9 -10 0 -8 3 5 9 27 12
43 12 25 0z m-2389 -54 c-6 -11 -16 -41 -21 -66 l-9 -45 5 50 c3 28 6 55 7 62
0 7 4 10 9 7 4 -3 8 2 8 11 0 9 -4 13 -10 10 -6 -4 -7 1 -3 11 5 15 7 15 16
-1 6 -11 5 -24 -2 -39z m2710 37 c-12 -24 -61 -69 -61 -57 0 5 -5 2 -10 -6 -5
-8 -10 -10 -10 -4 0 6 9 19 20 29 11 10 20 15 20 10 0 -4 9 4 21 19 23 30 34
34 20 9z m-3088 -8 c-3 -9 -8 -14 -10 -11 -3 3 -2 9 2 15 9 16 15 13 8 -4z
m2480 8 c-7 -2 -21 -2 -30 0 -10 3 -4 5 12 5 17 0 24 -2 18 -5z m230 0 c-7 -2
-19 -2 -25 0 -7 3 -2 5 12 5 14 0 19 -2 13 -5z m-2917 -40 c-8 -15 -15 -25
-16 -21 0 12 23 58 27 54 3 -2 -2 -17 -11 -33z m434 -38 l-7 -70 -1 57 c-2 47
6 97 12 86 1 -2 -1 -34 -4 -73z m2343 68 c-13 -2 -35 -2 -50 0 -16 2 -5 4 22
4 28 0 40 -2 28 -4z m75 0 c-10 -2 -26 -2 -35 0 -10 3 -2 5 17 5 19 0 27 -2
18 -5z m-2747 -30 c-5 -10 -17 -27 -26 -38 -16 -19 -17 -19 -3 5 26 46 29 50
34 50 3 0 0 -8 -5 -17z m120 -6 c-10 -9 -11 -8 -5 6 3 10 9 15 12 12 3 -3 0
-11 -7 -18z m2276 -24 c-3 -10 -5 -4 -5 12 0 17 2 24 5 18 2 -7 2 -21 0 -30z
m-2328 -32 c-6 -18 -13 -30 -15 -28 -2 2 1 18 7 36 6 18 13 30 15 28 2 -2 -1
-18 -7 -36z m-39 -21 c-4 -15 -16 -39 -25 -54 -10 -14 -14 -26 -10 -26 4 0 -3
-9 -16 -20 -13 -10 -20 -19 -16 -20 5 0 -18 -25 -50 -55 -32 -30 -53 -55 -47
-55 6 0 19 10 30 21 41 46 113 99 119 89 4 -6 3 -9 -2 -8 -4 2 -39 -28 -78
-66 -38 -37 -79 -72 -90 -77 -11 -6 -45 -23 -74 -39 -30 -16 -59 -26 -63 -24
-4 3 -8 0 -8 -5 0 -6 -18 -11 -41 -11 l-40 0 76 40 c137 70 319 249 301 295
-3 8 2 19 10 25 8 7 14 20 14 29 0 13 2 13 9 2 5 -7 5 -26 1 -41z m2320 -26
c-16 -76 -22 -63 -8 17 6 35 13 58 15 52 3 -7 -1 -38 -7 -69z m752 59 c-6 -2
-9 -10 -6 -15 4 -7 2 -8 -5 -4 -13 9 -5 26 12 25 9 0 8 -2 -1 -6z m-2745 -50
c-3 -10 -5 -2 -5 17 0 19 2 27 5 18 2 -10 2 -26 0 -35z m40 15 c-3 -7 -5 -2
-5 12 0 14 2 19 5 13 2 -7 2 -19 0 -25z m-631 -38 c-17 -33 -32 -55 -34 -50
-2 5 4 20 12 34 9 14 23 37 31 51 28 46 23 26 -9 -35z m2621 38 c-3 -8 -6 -5
-6 6 -1 11 2 17 5 13 3 -3 4 -12 1 -19z m679 13 c-7 -11 -76 -52 -76 -46 0 4
70 53 78 54 2 1 1 -3 -2 -8z m-3165 -38 c-11 -16 -11 -15 -5 6 4 17 3 21 -6
16 -9 -6 -11 -4 -5 4 5 9 11 9 17 3 7 -7 6 -16 -1 -29z m2696 5 c13 -12 23
-27 23 -34 0 -7 10 -20 22 -28 12 -9 17 -16 11 -16 -7 0 -25 17 -40 38 -32 43
-44 53 -55 46 -4 -3 -8 0 -8 5 0 18 22 12 47 -11z m-2666 -11 c-10 -9 -11 -8
-5 6 3 10 9 15 12 12 3 -3 0 -11 -7 -18z m33 -7 c-6 -6 -10 -3 -10 10 0 13 4
16 10 10 7 -7 7 -13 0 -20z m2706 20 c0 -5 -2 -10 -4 -10 -3 0 -8 5 -11 10 -3
6 -1 10 4 10 6 0 11 -4 11 -10z m-2866 -17 c-3 -10 -14 -29 -25 -43 -19 -24
-19 -24 1 18 21 44 31 54 24 25z m623 -60 c-2 -16 -4 -3 -4 27 0 30 2 43 4 28
2 -16 2 -40 0 -55z m1950 55 c-3 -8 -6 -5 -6 6 -1 11 2 17 5 13 3 -3 4 -12 1
-19z m413 12 c0 -5 -2 -10 -4 -10 -3 0 -8 5 -11 10 -3 6 -1 10 4 10 6 0 11 -4
11 -10z m-2485 -100 c4 -18 3 -21 -4 -10 -5 8 -12 38 -15 65 -5 49 -5 49 4 10
6 -22 12 -51 15 -65z m2285 65 c0 -5 -5 -3 -10 5 -5 8 -10 20 -10 25 0 6 5 3
10 -5 5 -8 10 -19 10 -25z m418 1 c-35 -31 -138 -93 -138 -83 0 3 25 19 55 36
51 29 74 51 40 37 -22 -8 -18 2 6 15 15 8 19 8 15 0 -12 -19 9 -12 27 9 9 11
20 20 24 20 5 -1 -9 -16 -29 -34z m-1210 -1 c-3 -3 -9 2 -12 12 -6 14 -5 15 5
6 7 -7 10 -15 7 -18z m-1768 -32 c-11 -17 -11 -17 -6 0 3 10 7 26 7 35 1 15 2
15 6 0 2 -10 -1 -25 -7 -35z m337 10 c-3 -10 -5 -4 -5 12 0 17 2 24 5 18 2 -7
2 -21 0 -30z m-477 -36 l-54 -52 49 55 c28 31 52 54 55 53 2 -2 -20 -27 -50
-56z m507 26 c-3 -10 -5 -4 -5 12 0 17 2 24 5 18 2 -7 2 -21 0 -30z m-330 5
c-3 -8 -6 -5 -6 6 -1 11 2 17 5 13 3 -3 4 -12 1 -19z m2793 18 c0 -3 -24 -13
-52 -24 -40 -15 -64 -18 -98 -12 l-45 7 60 2 c33 1 74 8 90 16 32 14 45 18 45
11z m-2726 -36 c-10 -16 -20 -28 -22 -26 -4 5 28 56 35 56 2 0 -4 -13 -13 -30z
m1766 -63 c-3 -2 -25 20 -50 47 l-44 51 49 -47 c27 -26 47 -49 45 -51z m1040
88 c0 -6 -56 -35 -67 -35 -4 1 8 9 27 20 39 22 40 22 40 15z m-3156 -45 c-15
-22 -29 -40 -31 -40 -5 0 3 15 29 53 30 43 31 32 2 -13z m2456 37 c0 -2 -15
-16 -32 -33 l-33 -29 29 33 c28 30 36 37 36 29z m83 -24 c-6 -2 -9 -14 -7 -26
4 -20 4 -21 -4 -2 -6 12 -5 27 2 38 7 11 12 13 15 5 2 -7 -1 -14 -6 -15z m308
10 c13 -16 12 -17 -3 -4 -17 13 -22 21 -14 21 2 0 10 -8 17 -17z m-2461 -13
c0 -5 -5 -10 -11 -10 -5 0 -7 5 -4 10 3 6 8 10 11 10 2 0 4 -4 4 -10z m2347 4
c-3 -3 -12 -4 -19 -1 -8 3 -5 6 6 6 11 1 17 -2 13 -5z m338 -12 c-14 -11 -86
-35 -91 -29 -2 2 17 11 43 20 57 19 60 19 48 9z m-3161 -54 c-14 -29 -37 -67
-50 -85 -13 -17 -24 -36 -24 -42 0 -6 -7 -11 -16 -11 -13 0 -12 7 8 39 30 50
100 151 105 151 2 0 -8 -24 -23 -52z m756 42 c0 -5 -4 -10 -10 -10 -5 0 -10 5
-10 10 0 6 5 10 10 10 6 0 10 -4 10 -10z m2133 3 c-7 -2 -19 -2 -25 0 -7 3 -2
5 12 5 14 0 19 -2 13 -5z m90 0 c-13 -2 -33 -2 -45 0 -13 2 -3 4 22 4 25 0 35
-2 23 -4z m-2541 -40 c-53 -66 -188 -186 -232 -207 -8 -4 -2 3 15 16 16 13 75
68 130 124 104 105 138 131 87 67z m2024 12 c-11 -8 -27 -15 -35 -15 -9 1 -2
7 14 15 39 18 44 18 21 0z m-1986 -15 c-6 -11 -13 -20 -16 -20 -2 0 0 9 6 20
6 11 13 20 16 20 2 0 0 -9 -6 -20z m160 -15 c0 -5 -5 -3 -10 5 -5 8 -10 20
-10 25 0 6 5 3 10 -5 5 -8 10 -19 10 -25z m2480 20 c-14 -8 -29 -14 -35 -14
-5 0 1 6 15 14 14 8 30 14 35 14 6 0 -1 -6 -15 -14z m-182 -2 c-10 -2 -28 -2
-40 0 -13 2 -5 4 17 4 22 1 32 -1 23 -4z m70 0 c-10 -2 -26 -2 -35 0 -10 3 -2
5 17 5 19 0 27 -2 18 -5z m-2958 -23 c-6 -11 -13 -20 -16 -20 -2 0 0 9 6 20 6
11 13 20 16 20 2 0 0 -9 -6 -20z m85 10 c-3 -5 -12 -10 -18 -10 -7 0 -6 4 3
10 19 12 23 12 15 0z m215 -5 c-7 -9 -15 -13 -19 -10 -3 3 1 10 9 15 21 14 24
12 10 -5z m478 -60 c0 -5 -6 4 -13 20 -8 17 -14 37 -14 45 0 8 7 -1 14 -20 7
-19 13 -39 13 -45z m-95 -100 l39 -50 -41 44 c-38 40 -92 128 -91 148 1 4 13
-14 27 -42 14 -27 44 -72 66 -100z m1868 118 c-12 -20 -14 -14 -5 12 4 9 9 14
11 11 3 -2 0 -13 -6 -23z m402 20 c-7 -2 -21 -2 -30 0 -10 3 -4 5 12 5 17 0
24 -2 18 -5z m-2283 -38 c0 -5 -5 -3 -10 5 -5 8 -10 20 -10 25 0 6 5 3 10 -5
5 -8 10 -19 10 -25z m-650 21 c0 -2 -8 -10 -17 -17 -16 -13 -17 -12 -4 4 13
16 21 21 21 13z m3182 -16 c162 -24 199 -33 88 -23 -41 4 -92 7 -112 7 -20 -1
-35 3 -32 8 3 5 -14 8 -38 7 -23 -1 -61 2 -82 6 -26 5 -37 4 -32 -3 3 -6 -11
-11 -39 -14 -57 -4 -58 5 -2 19 64 16 94 15 249 -7z m-2817 0 c3 -5 12 -7 19
-4 8 3 16 1 20 -4 6 -10 -24 -9 -41 1 -6 4 -14 3 -18 -3 -3 -5 -11 -10 -16
-10 -11 0 12 29 23 30 4 0 9 -4 13 -10z m-534 -27 c-12 -20 -14 -14 -5 12 4 9
9 14 11 11 3 -2 0 -13 -6 -23z m378 24 c-2 -1 -13 -9 -24 -17 -19 -14 -19 -14
-6 3 7 9 18 17 24 17 6 0 8 -1 6 -3z m2528 -3 c-3 -3 -12 -4 -19 -1 -8 3 -5 6
6 6 11 1 17 -2 13 -5z m-2793 -16 c-3 -4 -11 -5 -19 -1 -21 7 -19 12 4 10 11
0 18 -5 15 -9z m830 -14 c3 -8 2 -12 -4 -9 -6 3 -10 10 -10 16 0 14 7 11 14
-7z m1731 -11 c-34 -53 -45 -67 -45 -60 0 10 51 87 57 87 3 0 -3 -12 -12 -27z
m45 19 c0 -5 -7 -17 -15 -28 -14 -18 -14 -17 -4 9 12 27 19 34 19 19z m-2635
-12 c-3 -5 -12 -10 -18 -10 -7 0 -6 4 3 10 19 12 23 12 15 0z m245 5 c0 -8
-62 -37 -68 -31 -3 3 0 6 7 6 7 0 9 5 5 12 -4 7 -3 8 4 4 7 -4 20 -2 29 3 21
12 23 13 23 6z m2457 -16 c-22 -11 -41 -18 -44 -15 -3 3 10 12 28 20 50 21 60
18 16 -5z m643 -12 c47 -9 103 -23 125 -31 l40 -15 -50 0 c-27 -1 -68 -3 -90
-6 -35 -4 -36 -3 -10 4 l30 9 -35 3 c-19 1 -44 2 -55 1 -11 -1 -51 -2 -88 -2
-38 -1 -79 -5 -93 -10 -17 -7 -23 -7 -19 0 8 13 -11 13 -36 0 -10 -6 -19 -8
-19 -6 0 10 59 36 80 36 13 0 20 5 18 13 -3 8 -32 13 -84 15 -43 2 -82 6 -86
10 -12 12 283 -5 372 -21z m-2960 8 c-7 -9 -27 -25 -44 -37 -24 -16 -22 -12 9
16 42 38 56 46 35 21z m2417 -12 c-23 -16 -33 -29 -26 -33 6 -4 -2 -10 -18
-13 -15 -3 -29 -4 -30 -3 -4 4 92 75 102 75 5 1 -7 -11 -28 -26z m-2292 -52
c-4 -38 -11 -59 -17 -55 -7 5 -7 1 0 -12 7 -13 7 -24 0 -38 -6 -11 -12 -35
-13 -55 -3 -35 -2 -36 8 -8 6 15 15 27 20 27 5 0 6 -7 3 -15 -17 -42 -16 -47
4 -17 12 17 24 32 27 32 3 0 -4 -15 -14 -32 -26 -44 -44 -98 -33 -98 4 0 11 6
14 13 3 6 3 1 0 -12 -5 -19 -3 -23 10 -18 13 5 14 3 3 -13 -6 -11 -17 -18 -24
-16 -7 3 -15 0 -19 -6 -4 -7 -3 -8 4 -4 7 4 12 2 12 -3 0 -6 -6 -11 -12 -11
-7 0 -26 -7 -43 -15 -24 -13 -22 -9 14 23 28 24 42 43 37 51 -6 9 -11 9 -24
-1 -15 -12 -16 -11 -3 5 8 9 11 20 8 23 -3 3 -13 -6 -22 -19 -9 -14 -24 -28
-33 -32 -9 -3 4 16 31 42 74 77 62 84 -39 22 l-66 -40 22 31 c12 16 26 27 32
24 6 -4 8 -2 4 4 -3 6 13 39 36 73 27 38 38 64 31 66 -8 3 -5 15 8 38 11 19
19 42 18 52 -3 21 11 67 18 59 3 -2 2 -32 -2 -65z m-46 38 c-9 -17 -8 -24 2
-31 11 -7 9 -8 -4 -4 -10 3 -21 6 -23 6 -2 0 3 11 12 25 20 31 29 33 13 4z
m2286 13 c-6 -4 -23 -18 -40 -32 l-30 -25 20 25 c23 29 36 40 50 40 5 0 5 -3
0 -8z m298 1 c-7 -2 -19 -2 -25 0 -7 3 -2 5 12 5 14 0 19 -2 13 -5z m60 0 c-7
-2 -21 -2 -30 0 -10 3 -4 5 12 5 17 0 24 -2 18 -5z m-2313 -48 c24 -29 24 -29
2 -10 -13 11 -28 29 -34 40 -11 21 -8 18 32 -30z m1850 41 c0 -2 -7 -7 -16
-10 -8 -3 -12 -2 -9 4 6 10 25 14 25 6z m-2545 -16 c-3 -5 -16 -10 -28 -9 -21
0 -21 1 -2 9 28 12 37 12 30 0z m756 -7 c13 -16 12 -17 -3 -4 -17 13 -22 21
-14 21 2 0 10 -8 17 -17z m24 -65 c39 -40 51 -55 28 -34 -23 22 -46 35 -53 31
-8 -5 -6 -11 7 -22 17 -13 17 -13 -3 -4 -26 13 -51 41 -35 41 6 0 11 -5 11
-12 0 -9 3 -9 11 -1 14 14 2 36 -14 27 -7 -4 -9 -3 -4 1 4 5 0 17 -10 27 -9
10 -14 18 -12 18 3 0 36 -33 74 -72z m2018 65 c-18 -2 -48 -2 -65 0 -18 2 -4
4 32 4 36 0 50 -2 33 -4z m-243 -13 c-8 -5 -19 -10 -25 -10 -5 0 -3 5 5 10 8
5 20 10 25 10 6 0 3 -5 -5 -10z m-2235 -46 c-18 -38 -198 -214 -218 -214 -4 0
-5 -5 -2 -10 4 -6 3 -9 -2 -8 -4 2 -29 -12 -54 -29 -26 -18 -49 -29 -53 -26
-3 4 -6 2 -6 -4 0 -6 -9 -13 -21 -16 -12 -3 -18 -10 -15 -16 4 -5 2 -13 -4
-16 -6 -4 -10 -3 -9 2 4 20 -3 23 -28 9 -16 -7 -55 -19 -87 -26 -43 -9 -55
-15 -45 -22 22 -15 -98 0 -129 16 -15 8 -35 23 -45 34 -18 20 -18 20 24 5 154
-52 348 18 569 208 30 26 73 69 95 97 22 27 41 49 43 48 1 -2 -5 -16 -13 -32z
m378 -60 c23 -20 33 -31 22 -23 -34 22 -96 83 -107 104 -5 11 2 6 16 -12 15
-17 45 -48 69 -69z m2159 66 c3 -16 1 -30 -4 -30 -4 0 -8 14 -8 30 0 17 2 30
4 30 2 0 6 -13 8 -30z m78 26 c0 -2 -8 -10 -17 -17 -16 -13 -17 -12 -4 4 13
16 21 21 21 13z m247 -2 c-3 -3 -12 -4 -19 -1 -8 3 -5 6 6 6 11 1 17 -2 13 -5z
m-389 -11 c-10 -2 -26 -2 -35 0 -10 3 -2 5 17 5 19 0 27 -2 18 -5z m29 -30
c-3 -10 -5 -4 -5 12 0 17 2 24 5 18 2 -7 2 -21 0 -30z m-2016 10 c13 -16 12
-17 -3 -4 -10 7 -18 15 -18 17 0 8 8 3 21 -13z m1912 10 c-7 -2 -21 -2 -30 0
-10 3 -4 5 12 5 17 0 24 -2 18 -5z m247 -24 c-30 -17 -70 -45 -87 -62 -18 -17
-33 -28 -33 -24 0 20 137 117 165 117 6 0 -15 -14 -45 -31z m-2642 -25 c-18
-25 -37 -48 -43 -52 -5 -3 3 12 19 34 45 60 48 64 53 64 2 0 -11 -21 -29 -46z
m2832 35 c0 -3 -10 -11 -22 -17 -13 -7 -34 -19 -48 -28 l-25 -16 25 20 c14 12
26 26 26 31 1 6 2 13 3 15 2 7 41 3 41 -5z m-2560 -56 c-4 -56 -5 -57 -8 -14
-3 38 2 71 10 71 2 0 1 -26 -2 -57z m120 32 c13 -14 21 -25 18 -25 -2 0 -15
11 -28 25 -13 14 -21 25 -18 25 2 0 15 -11 28 -25z m-665 5 c-3 -5 -12 -10
-18 -10 -7 0 -6 4 3 10 19 12 23 12 15 0z m-245 -4 c0 -2 -7 -7 -16 -10 -8 -3
-12 -2 -9 4 6 10 25 14 25 6z m757 -58 c-2 -13 -4 -3 -4 22 0 25 2 35 4 23 2
-13 2 -33 0 -45z m78 42 c10 -11 16 -20 13 -20 -3 0 -13 9 -23 20 -10 11 -16
20 -13 20 3 0 13 -9 23 -20z m236 -16 c9 -11 2 -9 -18 6 -18 13 -33 25 -33 27
0 8 38 -17 51 -33z m2186 18 c-10 -10 -15 -21 -12 -24 3 -2 -7 -15 -22 -29
l-28 -24 20 24 c20 24 20 24 0 17 -12 -4 -6 5 15 23 40 34 51 40 27 13z m-214
-7 c-3 -9 -8 -14 -10 -11 -3 3 -2 9 2 15 9 16 15 13 8 -4z m89 -28 c-24 -24
-50 -44 -58 -44 -10 0 -6 9 12 28 15 16 30 26 34 24 3 -2 14 5 23 16 9 10 20
19 24 19 4 0 -12 -19 -35 -43z m-2502 25 c0 -5 -7 -17 -15 -28 -14 -18 -14
-17 -4 9 12 27 19 34 19 19z m2521 -48 c-61 -66 -85 -109 -77 -137 3 -14 2
-17 -6 -9 -20 20 4 73 64 138 33 35 62 64 65 64 3 0 -18 -25 -46 -56z m-1976
36 c3 -6 -1 -7 -9 -4 -18 7 -21 14 -7 14 6 0 13 -4 16 -10z m-1048 -6 c-3 -3
-12 -4 -19 -1 -8 3 -5 6 6 6 11 1 17 -2 13 -5z m838 -4 c3 -6 -1 -7 -9 -4 -18
7 -21 14 -7 14 6 0 13 -4 16 -10z m-69 -22 l19 -23 -25 20 c-14 11 -27 21 -29
22 -2 2 0 3 6 3 5 0 18 -10 29 -22z m620 7 c-11 -8 -25 -15 -30 -15 -6 1 0 7
14 15 32 19 40 18 16 0z m1511 -7 c-3 -8 -6 -5 -6 6 -1 11 2 17 5 13 3 -3 4
-12 1 -19z m-2557 -12 c0 -2 -8 -10 -17 -17 -16 -13 -17 -12 -4 4 13 16 21 21
21 13z m995 -6 c-3 -5 -12 -10 -18 -10 -7 0 -6 4 3 10 19 12 23 12 15 0z
m1088 3 c-7 -2 -21 -2 -30 0 -10 3 -4 5 12 5 17 0 24 -2 18 -5z m-190 -10 c-7
-2 -19 -2 -25 0 -7 3 -2 5 12 5 14 0 19 -2 13 -5z m600 -15 c-9 -10 -21 -18
-27 -18 -6 0 -3 5 7 11 9 6 15 14 13 18 -3 4 1 8 9 8 13 0 12 -4 -2 -19z m68
-9 c-5 -13 -10 -19 -10 -12 -1 15 10 45 15 40 3 -2 0 -15 -5 -28z m129 11 c-6
-11 -13 -20 -16 -20 -2 0 0 9 6 20 6 11 13 20 16 20 2 0 0 -9 -6 -20z m-1730
6 c0 -2 -11 -6 -25 -8 -13 -3 -22 -1 -19 3 5 9 44 13 44 5z m-653 -28 c-3 -8
-6 -5 -6 6 -1 11 2 17 5 13 3 -3 4 -12 1 -19z m1500 16 c-3 -3 -12 -4 -19 -1
-8 3 -5 6 6 6 11 1 17 -2 13 -5z m721 -14 c-7 -11 -19 -20 -27 -20 -8 0 -4 8
10 20 30 25 32 25 17 0z m65 -5 c-7 -21 -13 -19 -13 6 0 11 4 18 10 14 5 -3 7
-12 3 -20z m-2623 12 c0 -2 -15 -16 -32 -33 -27 -24 -29 -25 -13 -4 24 30 45
47 45 37z m2105 -57 c-8 -9 -33 -26 -55 -36 -22 -10 -40 -22 -40 -26 0 -5 -8
-8 -18 -8 -10 0 -22 -4 -27 -9 -15 -14 -179 -61 -212 -61 -57 0 -63 34 -14 80
45 42 169 86 276 97 28 3 52 6 54 8 2 2 14 -3 27 -12 23 -14 23 -17 9 -33z
m-365 30 c-8 -5 -19 -10 -25 -10 -5 0 -3 5 5 10 8 5 20 10 25 10 6 0 3 -5 -5
-10z m203 3 c-7 -2 -21 -2 -30 0 -10 3 -4 5 12 5 17 0 24 -2 18 -5z m240 0
c-7 -2 -21 -2 -30 0 -10 3 -4 5 12 5 17 0 24 -2 18 -5z m538 -3 c27 15 24 5
-4 -13 -21 -14 -23 -13 -24 7 -1 11 1 15 4 9 3 -9 10 -10 24 -3z m-886 -20
c-27 -12 -43 -12 -25 0 8 5 22 9 30 9 10 0 8 -3 -5 -9z m662 4 c-3 -3 -12 -4
-19 -1 -8 3 -5 6 6 6 11 1 17 -2 13 -5z m-2557 -67 c-36 -34 -85 -80 -110
-101 -30 -25 -40 -39 -32 -43 10 -4 9 -8 -5 -18 -10 -7 -21 -12 -24 -11 -4 0
-15 -6 -25 -15 -11 -9 -27 -19 -36 -22 -10 -4 -18 -11 -18 -17 0 -12 39 3 115
44 27 14 57 26 65 25 9 0 7 -4 -7 -11 -13 -6 -23 -14 -23 -18 0 -4 -20 -13
-45 -20 -25 -7 -45 -16 -45 -20 0 -4 -19 -12 -42 -19 -68 -20 -88 -30 -88 -41
0 -5 -5 -10 -11 -10 -5 0 -7 5 -4 10 3 6 2 10 -4 10 -5 0 -11 -5 -13 -12 -5
-15 -184 -19 -213 -5 -11 6 -36 24 -55 40 -31 27 -32 30 -10 23 84 -24 232
-10 325 30 22 10 44 17 48 16 11 -3 59 23 87 48 14 12 54 46 90 75 36 29 81
69 99 89 19 20 37 36 40 36 4 0 -23 -29 -59 -63z m2619 53 c-10 -7 -49 -2 -49
5 0 2 14 3 31 3 17 -1 25 -4 18 -8z m331 6 c0 -2 -7 -7 -16 -10 -8 -3 -12 -2
-9 4 6 10 25 14 25 6z m-2627 -21 c-3 -9 -8 -14 -10 -11 -3 3 -2 9 2 15 9 16
15 13 8 -4z m60 -5 c-3 -12 -8 -19 -11 -16 -5 6 5 36 12 36 2 0 2 -9 -1 -20z
m1322 10 c-3 -5 -12 -10 -18 -10 -7 0 -6 4 3 10 19 12 23 12 15 0z m880 -10
c-3 -5 -12 -10 -18 -10 -7 0 -6 4 3 10 19 12 23 12 15 0z m65 0 c0 -5 -5 -10
-11 -10 -5 0 -7 5 -4 10 3 6 8 10 11 10 2 0 4 -4 4 -10z m80 6 c0 -3 -4 -8
-10 -11 -5 -3 -10 -1 -10 4 0 6 5 11 10 11 6 0 10 -2 10 -4z m-2640 -51 c-45
-46 -71 -64 -32 -22 12 13 20 27 17 30 -3 4 -2 5 1 3 3 -3 15 4 27 15 40 37
31 19 -13 -26z m2100 35 c0 -5 -5 -10 -11 -10 -5 0 -7 5 -4 10 3 6 8 10 11 10
2 0 4 -4 4 -10z m619 7 c-2 -2 -11 -8 -20 -15 -12 -9 -16 -9 -16 1 0 7 9 14
20 14 11 1 18 1 16 0z m-54 -17 c-3 -5 -20 -19 -38 -31 l-32 -22 29 31 c28 30
55 44 41 22z m75 6 c0 -2 -8 -10 -17 -17 -16 -13 -17 -12 -4 4 13 16 21 21 21
13z m-2920 -36 c-12 -16 -24 -30 -26 -30 -3 0 4 14 16 30 12 17 24 30 26 30 3
0 -4 -13 -16 -30z m420 -6 c-6 -16 -11 -31 -11 -34 0 -3 -7 -9 -15 -13 -8 -4
-14 -13 -14 -18 0 -6 5 -7 11 -3 7 4 7 -2 -1 -17 -18 -35 -23 -38 -16 -9 l7
25 -21 -25 c-26 -30 -17 -10 20 45 15 22 31 50 35 63 4 13 9 22 11 19 3 -2 0
-17 -6 -33z m1400 31 c0 -2 -10 -9 -22 -15 -22 -11 -22 -10 -4 4 21 17 26 19
26 11z m-2286 -21 c3 -8 2 -12 -4 -9 -6 3 -10 10 -10 16 0 14 7 11 14 -7z
m1396 6 c8 -5 11 -10 5 -10 -5 0 -17 5 -25 10 -8 5 -10 10 -5 10 6 0 17 -5 25
-10z m780 7 c0 -2 -10 -12 -22 -23 l-23 -19 19 23 c18 21 26 27 26 19z m540
-2 c0 -2 -13 -11 -30 -20 -38 -19 -40 -11 -2 9 31 17 32 18 32 11z m94 -39
c-8 -32 -20 -41 -20 -15 0 10 4 19 9 19 5 0 5 10 2 23 -6 16 -4 19 4 11 7 -7
9 -22 5 -38z m572 11 c-22 -18 -42 -32 -45 -32 -3 0 -13 -4 -21 -9 -9 -6 -8
-1 4 12 10 12 23 19 27 16 5 -3 9 -1 9 5 0 9 46 40 60 40 3 0 -13 -14 -34 -32z
m-2771 13 c-3 -5 -16 -15 -28 -21 -19 -9 -19 -8 3 10 28 23 34 26 25 11z m235
-10 c-6 -11 -13 -20 -16 -20 -2 0 0 9 6 20 6 11 13 20 16 20 2 0 0 -9 -6 -20z
m157 -12 c-3 -7 -5 -2 -5 12 0 14 2 19 5 13 2 -7 2 -19 0 -25z m-30 0 c-3 -8
-6 -5 -6 6 -1 11 2 17 5 13 3 -3 4 -12 1 -19z m2203 1 c18 -11 -34 -1 -65 13
-13 5 -9 6 15 2 19 -4 42 -10 50 -15z m-1785 -7 c-3 -3 -11 0 -18 7 -9 10 -8
11 6 5 10 -3 15 -9 12 -12z m75 3 c14 -8 21 -14 15 -14 -5 0 -21 6 -35 14 -14
8 -20 14 -15 14 6 0 21 -6 35 -14z m-203 -1 c-3 -3 -12 -4 -19 -1 -8 3 -5 6 6
6 11 1 17 -2 13 -5z m1574 -21 c-12 -20 -14 -14 -5 12 4 9 9 14 11 11 3 -2 0
-13 -6 -23z m-2185 4 c-10 -7 -35 -25 -55 -40 -37 -30 -91 -61 -91 -53 0 2 15
13 33 24 17 11 52 34 76 51 24 17 47 31 50 30 3 0 -2 -6 -13 -12z m-66 -1 c0
-2 -8 -10 -17 -17 -16 -13 -17 -12 -4 4 13 16 21 21 21 13z m320 -4 c0 -5 -7
-17 -15 -28 -14 -18 -14 -17 -4 9 12 27 19 34 19 19z m238 1 c-10 -2 -28 -2
-40 0 -13 2 -5 4 17 4 22 1 32 -1 23 -4z m287 -3 c-3 -5 -12 -10 -18 -10 -7 0
-6 4 3 10 19 12 23 12 15 0z m735 7 c0 -2 -12 -14 -27 -28 l-28 -24 24 28 c23
25 31 32 31 24z m-947 -14 c-7 -2 -19 -2 -25 0 -7 3 -2 5 12 5 14 0 19 -2 13
-5z m267 -9 c0 -2 -9 -4 -20 -4 -11 0 -20 4 -20 9 0 5 9 7 20 4 11 -3 20 -7
20 -9z m-207 -1 c-7 -2 -19 -2 -25 0 -7 3 -2 5 12 5 14 0 19 -2 13 -5z m811
-8 c-4 -8 -11 -12 -16 -9 -6 4 -5 10 3 15 19 12 19 11 13 -6z m446 5 c-8 -5
-19 -10 -25 -10 -5 0 -3 5 5 10 8 5 20 10 25 10 6 0 3 -5 -5 -10z m240 -21
c-6 -10 -16 -18 -22 -16 -7 1 -12 -2 -13 -8 -1 -15 -35 -52 -75 -83 -26 -20
-21 -10 24 40 33 37 64 64 70 61 5 -4 7 0 3 9 -6 18 1 30 14 22 5 -3 4 -14 -1
-25z m465 21 c-3 -5 -14 -10 -23 -10 -15 0 -15 2 -2 10 20 13 33 13 25 0z
m-2525 -3 c0 -1 -24 -25 -52 -52 l-53 -50 50 53 c46 48 55 57 55 49z m90 -1
c0 -2 -8 -10 -17 -17 -16 -13 -17 -12 -4 4 13 16 21 21 21 13z m148 -27 c-6
-16 -12 -28 -14 -26 -5 5 13 57 20 57 3 0 0 -14 -6 -31z m395 24 c-7 -2 -21
-2 -30 0 -10 3 -4 5 12 5 17 0 24 -2 18 -5z m1921 -33 c-41 -42 -55 -52 -33
-22 29 38 53 62 62 62 5 0 -8 -18 -29 -40z m-2783 17 c-6 -8 -7 -18 -3 -22 4
-5 1 -5 -6 -1 -7 4 -19 4 -25 -1 -7 -4 -1 2 13 14 28 26 38 30 21 10z m491
-29 c-8 -8 -9 -4 -5 13 4 13 8 18 11 10 2 -7 -1 -18 -6 -23z m241 25 c-7 -2
-19 -2 -25 0 -7 3 -2 5 12 5 14 0 19 -2 13 -5z m256 -2 c8 -5 -5 -7 -35 -4
-68 6 -77 11 -24 12 25 0 51 -3 59 -8z m871 -7 c0 -2 -21 -4 -46 -4 -25 0 -43
4 -40 8 4 7 86 4 86 -4z m45 6 c3 -6 -4 -10 -17 -10 -18 0 -20 2 -8 10 19 12
18 12 25 0z m-1678 -34 c-15 -18 -23 -37 -19 -41 4 -5 1 -5 -5 -1 -7 4 -13 3
-13 -1 0 -5 -19 -28 -42 -52 -55 -56 -59 -81 -6 -39 29 22 38 26 30 12 -5 -10
-28 -32 -51 -49 -24 -17 -39 -36 -36 -44 4 -9 0 -11 -11 -7 -11 4 -18 -1 -21
-14 -3 -11 -9 -18 -13 -15 -5 3 -21 -6 -37 -20 -15 -13 -23 -25 -17 -25 5 0
20 9 32 20 l22 21 0 -21 c0 -12 5 -18 10 -15 6 4 8 11 5 16 -4 5 -2 9 4 9 6 0
8 8 4 18 -5 13 -3 15 7 5 20 -18 -12 -63 -40 -56 -14 4 -20 0 -20 -11 0 -10
-5 -13 -17 -9 -10 4 -14 2 -10 -4 4 -6 -4 -14 -18 -17 -16 -4 -23 -11 -19 -18
4 -7 3 -8 -4 -4 -14 9 -92 -14 -92 -27 0 -5 -10 -7 -22 -4 -12 3 -29 2 -39 -3
-9 -5 -31 -11 -48 -12 -18 -1 -31 -8 -31 -16 0 -7 4 -10 10 -7 6 4 7 -1 3 -11
-5 -14 -7 -15 -15 -1 -5 10 -16 14 -26 10 -14 -5 -14 -3 2 9 19 15 18 15 -12
20 -19 3 -32 0 -32 -6 0 -8 -3 -8 -8 0 -7 11 -14 13 -67 17 -14 1 -25 6 -25
10 0 5 -4 6 -8 3 -5 -3 -24 4 -43 16 l-34 20 24 -26 c14 -14 31 -26 39 -26 8
0 21 -8 29 -17 8 -10 11 -12 7 -4 -5 10 1 12 27 6 19 -4 39 -12 44 -18 7 -7 5
-8 -6 -4 -9 3 -22 0 -29 -6 -10 -9 -11 -9 -5 2 6 11 4 13 -9 8 -11 -4 -31 1
-50 12 -41 26 -127 116 -101 106 199 -76 573 64 767 286 56 65 75 79 35 25z
m646 27 c-7 -2 -19 -2 -25 0 -7 3 -2 5 12 5 14 0 19 -2 13 -5z m232 -13 c3 -6
-1 -7 -9 -4 -18 7 -21 14 -7 14 6 0 13 -4 16 -10z m1622 -12 c-3 -8 -6 -5 -6
6 -1 11 2 17 5 13 3 -3 4 -12 1 -19z m-2112 -27 c-21 -43 -29 -39 -8 4 9 19
18 33 21 31 2 -2 -4 -18 -13 -35z m1002 17 c-3 -8 -6 -5 -6 6 -1 11 2 17 5 13
3 -3 4 -12 1 -19z m1020 16 c-3 -3 -12 -4 -19 -1 -8 3 -5 6 6 6 11 1 17 -2 13
-5z m63 -4 c-8 -5 -19 -10 -25 -10 -5 0 -3 5 5 10 8 5 20 10 25 10 6 0 3 -5
-5 -10z m-2445 -20 c-10 -11 -23 -20 -29 -20 -6 0 0 9 14 20 32 25 38 25 15 0z
m55 0 c-10 -19 -6 -24 13 -21 5 1 5 -4 2 -10 -5 -8 -10 -8 -18 0 -8 8 -16 6
-31 -7 -11 -9 -6 0 10 20 32 42 40 48 24 18z m61 -3 c-10 -9 -11 -8 -5 6 3 10
9 15 12 12 3 -3 0 -11 -7 -18z m345 5 c-16 -2 -32 0 -37 5 -5 5 7 7 29 4 34
-5 35 -6 8 -9z m-130 -16 c-9 -14 -13 -31 -11 -38 3 -8 -8 -27 -25 -43 -16
-16 -30 -26 -30 -22 0 4 0 10 0 15 0 4 3 7 8 7 13 0 32 16 32 27 0 6 -7 5 -17
-3 -9 -8 -1 7 17 34 35 48 55 66 26 23z m1694 9 c-7 -8 -17 -15 -23 -15 -6 0
-2 7 9 15 25 19 30 19 14 0z m-1227 -12 c-7 -2 -21 -2 -30 0 -10 3 -4 5 12 5
17 0 24 -2 18 -5z m582 -13 c10 -11 16 -20 13 -20 -3 0 -13 9 -23 20 -10 11
-16 20 -13 20 3 0 13 -9 23 -20z m130 10 c3 -6 -1 -7 -9 -4 -18 7 -21 14 -7
14 6 0 13 -4 16 -10z m-1425 -39 c-29 -42 -36 -39 -8 3 13 19 24 33 26 31 3
-2 -6 -18 -18 -34z m151 6 l-24 -22 19 27 c10 14 21 24 23 22 3 -3 -6 -15 -18
-27z m59 29 c0 -2 -8 -10 -17 -17 -16 -13 -17 -12 -4 4 13 16 21 21 21 13z
m583 -3 c-7 -2 -21 -2 -30 0 -10 3 -4 5 12 5 17 0 24 -2 18 -5z m1590 0 c-7
-2 -21 -2 -30 0 -10 3 -4 5 12 5 17 0 24 -2 18 -5z m-1122 -20 c13 -16 12 -17
-3 -4 -17 13 -22 21 -14 21 2 0 10 -8 17 -17z m159 -20 c0 -7 -39 17 -46 28
-3 6 5 3 20 -6 14 -10 26 -19 26 -22z m105 -9 c48 -29 75 -52 74 -62 -1 -15
-2 -15 -6 -1 -2 9 -21 25 -41 37 -66 38 -117 71 -110 72 4 0 41 -21 83 -46z
m-1833 3 c-18 -18 -29 -37 -25 -41 4 -4 0 -4 -9 -1 -9 4 -19 2 -23 -4 -3 -6
-11 -11 -17 -11 -6 0 7 13 28 28 21 16 45 36 53 45 7 9 16 17 19 17 3 0 -9
-15 -26 -33z m68 29 c0 -2 -19 -19 -42 -36 l-43 -32 40 36 c40 36 45 39 45 32z
m509 -23 c-32 -35 -39 -42 -80 -78 -18 -16 -5 1 31 38 63 66 97 93 49 40z
m429 20 c-10 -2 -26 -2 -35 0 -10 3 -2 5 17 5 19 0 27 -2 18 -5z m240 0 c-10
-2 -26 -2 -35 0 -10 3 -2 5 17 5 19 0 27 -2 18 -5z m952 4 c0 -2 -10 -12 -22
-23 l-23 -19 19 23 c18 21 26 27 26 19z m-2255 -16 c3 -5 2 -12 -3 -15 -5 -3
-9 1 -9 9 0 17 3 19 12 6z m1160 -1 c3 -5 -1 -10 -10 -10 -9 0 -13 5 -10 10 3
6 8 10 10 10 2 0 7 -4 10 -10z m-615 -3 c0 -2 -12 -14 -27 -28 l-28 -24 24 28
c23 25 31 32 31 24z m2160 -12 c-7 -9 -15 -13 -19 -10 -3 3 1 10 9 15 21 14
24 12 10 -5z m-2237 -12 c-6 -16 -5 -16 10 -4 30 24 18 7 -23 -33 l-40 -39 26
47 c26 47 39 60 27 29z m1697 13 c0 -2 -16 -16 -35 -30 -19 -15 -35 -23 -35
-19 0 4 15 18 33 31 33 23 37 25 37 18z m-2700 -31 c13 -14 21 -25 18 -25 -2
0 -15 11 -28 25 -13 14 -21 25 -18 25 2 0 15 -11 28 -25z m850 22 c0 -2 -10
-12 -22 -23 l-23 -19 19 23 c18 21 26 27 26 19z m111 -20 c-10 -9 -11 -8 -5 6
3 10 9 15 12 12 3 -3 0 -11 -7 -18z m606 17 c-3 -3 -12 -4 -19 -1 -8 3 -5 6 6
6 11 1 17 -2 13 -5z m668 -4 c3 -6 -1 -7 -9 -4 -18 7 -21 14 -7 14 6 0 13 -4
16 -10z m111 1 c-3 -5 8 -14 26 -20 41 -15 47 -13 24 4 -29 22 -9 18 22 -4 15
-10 34 -21 42 -24 8 -4 -3 -4 -25 0 -61 9 -119 34 -103 44 17 11 20 11 14 0z
m378 -10 c-10 -10 -21 -16 -24 -14 -3 3 4 11 14 19 28 20 33 17 10 -5z m-2244
-1 c-8 -5 -19 -10 -25 -10 -5 0 -3 5 5 10 8 5 20 10 25 10 6 0 3 -5 -5 -10z
m1303 3 c-7 -2 -19 -2 -25 0 -7 3 -2 5 12 5 14 0 19 -2 13 -5z m-922 -16 c-6
-8 -9 -16 -6 -19 3 -2 -2 -5 -10 -5 -13 0 -13 3 2 19 19 21 31 25 14 5z m619
9 c0 -6 -93 -37 -97 -32 -2 2 15 11 39 19 47 17 58 19 58 13z m233 -3 c-7 -2
-19 -2 -25 0 -7 3 -2 5 12 5 14 0 19 -2 13 -5z m818 -10 c13 -16 12 -17 -3 -4
-10 7 -18 15 -18 17 0 8 8 3 21 -13z m69 -29 c0 -1 -12 -1 -27 -1 -16 0 -22 2
-15 4 10 4 9 10 -5 26 -15 18 -13 17 15 -3 17 -13 32 -25 32 -26z m-2180 21
c-14 -8 -29 -14 -35 -14 -5 0 1 6 15 14 14 8 30 14 35 14 6 0 -1 -6 -15 -14z
m1877 9 c-3 -3 -12 -4 -19 -1 -8 3 -5 6 6 6 11 1 17 -2 13 -5z m320 -9 c0 -8
-4 -12 -9 -9 -5 3 -6 10 -3 15 9 13 12 11 12 -6z m-2632 -5 c3 -5 1 -10 -4
-10 -6 0 -11 5 -11 10 0 6 2 10 4 10 3 0 8 -4 11 -10z m915 7 c0 -2 -10 -12
-22 -23 l-23 -19 19 23 c18 21 26 27 26 19z m130 -1 c0 -2 -8 -10 -17 -17 -16
-13 -17 -12 -4 4 13 16 21 21 21 13z m30 -12 c-8 -8 -23 -20 -34 -26 -18 -10
-17 -7 4 15 27 28 51 38 30 11z m485 -4 c-11 -5 -31 -8 -45 -8 l-25 0 25 8
c14 4 34 8 45 8 l20 1 -20 -9z m1112 -8 c-11 -12 -13 -22 -7 -32 5 -8 10 -19
9 -25 0 -5 -7 3 -15 18 -14 26 -14 30 3 43 25 19 29 17 10 -4z m-2302 -2 c-11
-5 -27 -9 -35 -9 -9 0 -8 4 5 9 11 5 27 9 35 9 9 0 8 -4 -5 -9z m570 1 c3 -6
-5 -15 -17 -21 -21 -10 -21 -10 -6 3 10 8 15 17 11 20 -3 4 -4 7 0 7 3 0 8 -4
12 -9z m445 5 c0 -2 -13 -9 -30 -15 -35 -12 -41 -5 -7 9 25 10 37 12 37 6z
m1854 -12 c3 -8 2 -12 -4 -9 -6 3 -10 10 -10 16 0 14 7 11 14 -7z m-810 -3 c4
-5 -3 -7 -14 -4 -23 6 -26 13 -6 13 8 0 17 -4 20 -9z m-2127 -7 c-3 -3 -12 -4
-19 -1 -8 3 -5 6 6 6 11 1 17 -2 13 -5z m558 -2 c-39 -33 -95 -72 -95 -65 0 4
22 23 48 40 44 31 68 43 47 25z m2434 -31 c-2 -6 -10 2 -17 17 -11 25 -11 25
4 10 9 -9 15 -21 13 -27z m-772 23 c-3 -3 -12 -4 -19 -1 -8 3 -5 6 6 6 11 1
17 -2 13 -5z m86 -1 c-13 -2 -35 -2 -50 0 -16 2 -5 4 22 4 28 0 40 -2 28 -4z
m-1558 -13 c-3 -5 -12 -10 -18 -10 -7 0 -6 4 3 10 19 12 23 12 15 0z m210 -10
c-16 -11 -37 -20 -45 -20 -8 0 1 8 20 19 47 25 62 26 25 1z m-426 -23 c-54
-49 -83 -73 -90 -72 -3 0 -14 -7 -25 -15 -18 -14 -18 -14 -5 2 7 10 17 15 22
12 5 -3 9 -1 9 5 0 9 109 100 120 100 3 0 -11 -14 -31 -32z m-129 17 c0 -8
-19 -13 -24 -6 -3 5 1 9 9 9 8 0 15 -2 15 -3z m250 2 c0 -2 -8 -10 -17 -17
-16 -13 -17 -12 -4 4 13 16 21 21 21 13z m41 -29 l-24 -22 19 27 c10 14 21 24
23 22 3 -3 -6 -15 -18 -27z m1653 -2 c5 -22 4 -26 -4 -15 -5 8 -10 24 -10 34
0 26 6 18 14 -19z m-1784 -20 c-24 -24 -45 -43 -48 -41 -2 2 -21 -12 -42 -33
-21 -20 -53 -44 -72 -55 l-33 -19 35 31 c19 17 38 31 42 32 4 0 19 12 33 28
14 15 31 27 38 27 6 1 11 6 10 12 -1 6 7 19 17 28 11 10 20 15 20 11 0 -4 7 0
16 8 8 9 18 16 22 16 3 0 -14 -20 -38 -45z m183 30 c-3 -9 -8 -14 -10 -11 -3
3 -2 9 2 15 9 16 15 13 8 -4z m277 5 c0 -5 -10 -10 -22 -9 -22 0 -22 1 -3 9
11 5 21 9 23 9 1 1 2 -3 2 -9z m2006 -12 c3 -4 -1 -5 -10 -4 -8 1 -18 5 -22 8
-3 4 1 5 10 4 8 -1 18 -5 22 -8z m-2576 -12 c0 -2 -17 -16 -37 -31 l-38 -26
35 30 c34 31 40 35 40 27z m175 -41 c-39 -33 -95 -69 -95 -62 0 2 18 16 40 31
23 15 38 31 35 35 -2 5 3 15 12 22 14 12 16 12 9 0 -6 -9 -5 -12 5 -9 8 3 13
11 11 17 -1 8 2 9 9 5 9 -5 0 -18 -26 -39z m373 28 c-16 -2 -40 -2 -55 0 -16
2 -3 4 27 4 30 0 43 -2 28 -4z m2052 -28 c0 -5 -5 -3 -10 5 -5 8 -10 20 -10
25 0 6 5 3 10 -5 5 -8 10 -19 10 -25z m-2310 15 c-35 -24 -54 -31 -30 -11 14
11 30 21 35 21 6 0 3 -5 -5 -10z m320 6 c0 -2 -7 -7 -16 -10 -8 -3 -12 -2 -9
4 6 10 25 14 25 6z m-377 -26 c-3 -11 -9 -17 -14 -14 -5 3 -9 1 -9 -4 0 -6 -8
-13 -17 -17 -11 -4 -7 5 11 24 35 37 36 37 29 11z m1677 11 c0 -5 -14 -16 -31
-25 -26 -13 -29 -13 -19 -1 7 8 19 15 26 15 8 0 14 5 14 10 0 6 2 10 5 10 3 0
5 -4 5 -9z m-1290 -21 c-8 -5 -24 -9 -35 -9 l-20 0 20 9 c11 5 27 9 35 9 13 1
13 0 0 -9z m-712 -17 c-11 -13 -100 -63 -113 -63 -3 0 -5 5 -5 10 0 6 3 9 8 9
4 -1 14 -1 22 1 11 1 10 4 -5 11 -19 9 -18 9 3 5 25 -5 85 21 78 33 -3 4 1 8
9 8 12 0 12 -3 3 -14z m174 -9 c-12 -8 -20 -19 -17 -24 3 -4 -9 -13 -27 -19
l-32 -11 40 34 c21 20 43 35 49 36 5 0 -1 -7 -13 -16z m184 7 c-4 -5 0 -12 6
-15 9 -4 8 -5 -2 -4 -18 2 -148 -58 -206 -94 -24 -16 -41 -21 -41 -14 0 7 48
34 106 60 58 27 113 55 121 62 16 16 24 18 16 5z m437 2 c-7 -2 -21 -2 -30 0
-10 3 -4 5 12 5 17 0 24 -2 18 -5z m-775 -40 c-13 -14 -32 -29 -43 -35 -11 -5
-6 2 10 16 37 31 28 33 -22 4 -49 -28 -38 -15 18 21 51 33 71 30 37 -6z m389
31 c-3 -3 -12 -4 -19 -1 -8 3 -5 6 6 6 11 1 17 -2 13 -5z m1593 2 c0 -2 -8
-10 -17 -17 -16 -13 -17 -12 -4 4 13 16 21 21 21 13z m57 -2 c-3 -3 -12 -4
-19 -1 -8 3 -5 6 6 6 11 1 17 -2 13 -5z m687 -43 c-5 -7 -24 11 -35 32 -11 20
-9 20 13 -3 13 -14 23 -27 22 -29z m-2121 32 c-7 -2 -19 -2 -25 0 -7 3 -2 5
12 5 14 0 19 -2 13 -5z m257 -3 c8 -5 11 -10 5 -10 -5 0 -17 5 -25 10 -8 5
-10 10 -5 10 6 0 17 -5 25 -10z m1222 -165 c-8 -37 -9 -34 -10 35 -1 41 2 91
6 110 6 30 7 24 10 -35 1 -38 -1 -88 -6 -110z m35 138 c-3 -10 -5 -4 -5 12 0
17 2 24 5 18 2 -7 2 -21 0 -30z m230 31 c-3 -3 -12 -4 -19 -1 -8 3 -5 6 6 6
11 1 17 -2 13 -5z m-1589 -11 c-10 -2 -28 -2 -40 0 -13 2 -5 4 17 4 22 1 32
-1 23 -4z m1093 -16 c-10 -9 -11 -8 -5 6 3 10 9 15 12 12 3 -3 0 -11 -7 -18z
m312 16 c-7 -2 -19 -2 -25 0 -7 3 -2 5 12 5 14 0 19 -2 13 -5z m-1344 -7 c-2
-2 -17 -6 -34 -10 -22 -5 -26 -4 -15 4 14 9 59 15 49 6z m1379 -42 c-3 -27 -4
-26 -9 8 -3 22 -1 34 4 29 5 -5 7 -21 5 -37z m48 -8 c-3 -23 -8 -59 -11 -80
-5 -46 -28 -76 -40 -55 -5 7 -4 10 3 5 6 -4 11 1 11 11 -1 10 2 47 6 83 4 36
7 70 8 77 0 6 7 9 15 6 11 -5 13 -16 8 -47z m237 47 c-7 -2 -21 -2 -30 0 -10
3 -4 5 12 5 17 0 24 -2 18 -5z m-2673 -11 c0 -4 -9 -8 -20 -9 -11 -1 -18 2
-15 8 7 11 35 12 35 1z m573 1 c-7 -2 -19 -2 -25 0 -7 3 -2 5 12 5 14 0 19 -2
13 -5z m2185 0 c-10 -2 -26 -2 -35 0 -10 3 -2 5 17 5 19 0 27 -2 18 -5z
m-2728 -23 c-24 -15 -36 -11 -14 4 10 8 21 12 24 10 2 -3 -2 -9 -10 -14z
m1990 16 c0 -2 -17 -16 -37 -31 l-38 -26 35 30 c34 31 40 35 40 27z m467 -2
c-3 -3 -12 -4 -19 -1 -8 3 -5 6 6 6 11 1 17 -2 13 -5z m-1992 -14 c-3 -5 -12
-10 -18 -10 -7 0 -6 4 3 10 19 12 23 12 15 0z m530 0 c-19 -8 -18 -9 4 -9 13
-1 22 -4 19 -7 -3 -3 -23 -2 -44 2 -32 6 -35 8 -19 15 11 4 29 8 40 8 l20 0
-20 -9z m1075 6 c0 -2 -7 -7 -16 -10 -8 -3 -12 -2 -9 4 6 10 25 14 25 6z
m-2130 -27 c-44 -12 -67 -9 -30 5 19 7 39 10 45 7 5 -3 -1 -8 -15 -12z m2267
-11 c-3 -7 -5 -2 -5 12 0 14 2 19 5 13 2 -7 2 -19 0 -25z m336 25 c-25 -5 -30
-18 -12 -29 8 -4 9 -29 5 -74 -5 -44 -3 -70 3 -75 6 -3 11 -12 11 -18 0 -7 -4
-6 -11 3 -8 12 -9 11 -4 -6 6 -22 -32 -114 -47 -114 -11 0 -10 18 8 122 9 50
14 113 12 140 -3 49 2 57 37 56 17 -1 16 -1 -2 -5z m-2513 -13 c-8 -5 -19 -10
-25 -10 -5 0 -3 5 5 10 8 5 20 10 25 10 6 0 3 -5 -5 -10z m45 -9 c-11 -11 -38
-22 -60 -25 l-40 -6 42 13 c23 6 48 18 55 25 6 6 14 12 17 12 3 0 -3 -9 -14
-19z m1942 -6 c-7 -13 -14 -20 -15 -14 -2 5 2 16 8 24 18 21 20 18 7 -10z m98
-5 l20 -25 -22 19 c-13 11 -23 24 -23 29 0 6 1 8 3 6 1 -2 11 -15 22 -29z
m322 -7 c-3 -10 -5 -4 -5 12 0 17 2 24 5 18 2 -7 2 -21 0 -30z m187 -20 c-8
-67 -48 -170 -96 -249 -23 -38 -34 -50 -37 -38 -1 9 4 21 13 26 24 14 52 75
75 166 24 92 27 138 9 145 -7 3 0 6 15 6 l28 1 -7 -57z m45 -13 c11 74 16 80
37 54 8 -10 13 -13 9 -6 -4 7 0 12 10 12 14 0 14 -3 1 -28 -35 -68 -77 -68
-74 0 l1 43 7 -45 c4 -25 8 -38 9 -30z m-2152 54 c-3 -3 -12 -4 -19 -1 -8 3
-5 6 6 6 11 1 17 -2 13 -5z m140 0 c-3 -3 -12 -4 -19 -1 -8 3 -5 6 6 6 11 1
17 -2 13 -5z m206 -1 c-7 -2 -19 -2 -25 0 -7 3 -2 5 12 5 14 0 19 -2 13 -5z
m60 0 c-7 -2 -21 -2 -30 0 -10 3 -4 5 12 5 17 0 24 -2 18 -5z m134 1 c-3 -3
-12 -4 -19 -1 -8 3 -5 6 6 6 11 1 17 -2 13 -5z m-587 -11 c-8 -3 -24 -10 -35
-15 -20 -9 -20 -9 -1 6 11 9 27 16 35 15 14 0 14 -1 1 -6z m149 4 c-2 -2 -11
-8 -20 -15 -12 -9 -16 -9 -16 1 0 7 9 14 20 14 11 1 18 1 16 0z m401 -13 c0
-2 -16 -4 -35 -4 -19 0 -35 4 -35 8 0 4 16 6 35 4 19 -2 35 -6 35 -8z m78 -10
c-7 -7 -26 -15 -43 -18 -29 -5 -29 -5 3 6 20 7 31 16 28 24 -3 8 0 11 10 7 13
-5 13 -8 2 -19z m806 17 c3 -5 -2 -15 -12 -22 -15 -12 -16 -12 -5 2 7 9 10 19
6 22 -3 4 -4 7 0 7 3 0 8 -4 11 -9z m163 -23 c-3 -7 -5 -2 -5 12 0 14 2 19 5
13 2 -7 2 -19 0 -25z m708 2 c-20 -22 -35 -26 -35 -9 0 5 4 7 10 4 5 -3 15 3
22 14 7 11 14 18 17 16 2 -3 -4 -14 -14 -25z m102 24 c-3 -3 -12 -4 -19 -1 -8
3 -5 6 6 6 11 1 17 -2 13 -5z m-3064 -11 c-7 -2 -19 -2 -25 0 -7 3 -2 5 12 5
14 0 19 -2 13 -5z m157 -8 c0 -16 -21 -18 -60 -4 -19 7 -16 7 15 3 29 -3 36
-2 25 5 -13 9 -13 11 3 11 9 0 17 -7 17 -15z m963 8 c-7 -2 -21 -2 -30 0 -10
3 -4 5 12 5 17 0 24 -2 18 -5z m1414 -15 c-3 -8 -6 -5 -6 6 -1 11 2 17 5 13 3
-3 4 -12 1 -19z m-1823 -2 c-29 -7 -88 -31 -133 -53 -91 -45 -100 -41 -15 8
65 37 126 58 169 57 22 0 17 -3 -21 -12z m131 4 c-27 -12 -43 -12 -25 0 8 5
22 9 30 9 10 0 8 -3 -5 -9z m1321 1 c-4 -5 -3 -11 1 -13 8 -3 55 -98 55 -108
0 -3 4 -11 10 -17 19 -23 -8 -14 -29 10 -22 23 -56 121 -46 131 10 9 15 7 9
-3z m306 -37 c-7 -12 -9 -8 -10 18 -1 26 1 30 9 16 6 -11 6 -24 1 -34z m-2402
32 c0 -3 -4 -8 -10 -11 -5 -3 -10 -1 -10 4 0 6 5 11 10 11 6 0 10 -2 10 -4z
m447 -9 c0 -7 -9 -13 -19 -13 -18 0 -18 1 -2 13 10 7 18 13 19 13 1 0 2 -6 2
-13z m83 9 c0 -2 -7 -7 -16 -10 -8 -3 -12 -2 -9 4 6 10 25 14 25 6z m393 -3
c-7 -2 -19 -2 -25 0 -7 3 -2 5 12 5 14 0 19 -2 13 -5z m-988 -13 c-3 -5 -18
-10 -33 -9 l-27 1 25 8 c35 11 42 11 35 0z m938 3 c-7 -2 -19 -2 -25 0 -7 3
-2 5 12 5 14 0 19 -2 13 -5z m1586 -48 c0 -5 -6 1 -14 15 -8 14 -14 30 -14 35
0 6 6 -1 14 -15 8 -14 14 -29 14 -35z m-2119 41 c0 -2 -8 -10 -17 -17 -16 -13
-17 -12 -4 4 13 16 21 21 21 13z m299 -74 c-41 -44 -82 -90 -92 -103 -9 -13
-7 -6 5 16 20 36 142 165 156 165 3 0 -28 -35 -69 -78z m171 63 c-14 -8 -29
-14 -35 -14 -5 0 1 6 15 14 14 8 30 14 35 14 6 0 -1 -6 -15 -14z m330 0 l55
-15 -59 6 c-33 3 -69 10 -80 14 -20 8 -19 9 4 9 14 0 50 -6 80 -14z m77 9 c-3
-3 -12 -4 -19 -1 -8 3 -5 6 6 6 11 1 17 -2 13 -5z m853 -2 c0 -5 -7 -9 -15 -9
-8 0 -12 4 -9 9 3 4 9 8 15 8 5 0 9 -4 9 -8z m181 -37 c9 -19 9 -19 -4 -2 -11
13 -16 15 -20 5 -2 -7 -4 0 -4 16 -1 29 5 25 28 -19z m24 26 c3 -10 18 -31 32
-45 15 -15 19 -24 11 -21 -19 8 -73 85 -59 85 5 0 12 -9 16 -19z m-1980 -13
c-3 -8 -33 -38 -66 -68 -34 -29 -56 -44 -49 -34 7 10 29 33 50 49 21 17 44 40
51 52 13 25 23 25 14 1z m105 18 c0 -2 -12 -11 -27 -20 l-28 -17 24 20 c23 21
31 25 31 17z m359 0 c-2 -2 -15 -9 -29 -15 -24 -11 -24 -11 -6 3 16 13 49 24
35 12z m180 0 c-2 -2 -17 -6 -34 -10 -22 -5 -26 -4 -15 4 14 9 59 15 49 6z
m1011 -4 c0 -4 -10 -13 -22 -21 -23 -14 -23 -14 -4 8 20 22 26 25 26 13z m897
-7 c0 -8 -4 -12 -9 -9 -5 3 -6 10 -3 15 9 13 12 11 12 -6z m63 5 c0 -5 -5 -10
-11 -10 -5 0 -7 5 -4 10 3 6 8 10 11 10 2 0 4 -4 4 -10z m-2450 -4 c0 -2 -12
-11 -27 -20 l-28 -17 24 20 c23 21 31 25 31 17z m500 -6 c0 -5 -5 -10 -11 -10
-5 0 -7 5 -4 10 3 6 8 10 11 10 2 0 4 -4 4 -10z m1066 -9 c0 -16 -3 -17 -14
-9 -12 10 -7 19 13 28 1 0 1 -9 1 -19z m-1208 -20 c-31 -15 -65 -34 -75 -42
-16 -13 -17 -12 -5 3 14 18 109 68 126 68 6 -1 -15 -13 -46 -29z m1362 -26 c0
-11 -14 7 -31 40 -7 13 -3 12 10 -5 11 -14 21 -29 21 -35z m397 18 c-3 -10 -5
-4 -5 12 0 17 2 24 5 18 2 -7 2 -21 0 -30z m190 15 c-3 -8 -6 -5 -6 6 -1 11 2
17 5 13 3 -3 4 -12 1 -19z m-2187 -3 c-7 -9 -15 -13 -19 -10 -3 3 1 10 9 15
21 14 24 12 10 -5z m508 8 c-10 -2 -26 -2 -35 0 -10 3 -2 5 17 5 19 0 27 -2
18 -5z m1470 -88 c-1 -31 -16 35 -16 70 0 25 2 24 9 -10 4 -22 8 -49 7 -60z
m320 75 c-7 -10 -14 -17 -17 -15 -4 4 18 35 25 35 2 0 -1 -9 -8 -20z m32 -27
c-11 -17 -11 -17 -6 0 3 10 7 26 7 35 1 15 2 15 6 0 2 -10 -1 -25 -7 -35z
m-2575 29 c-53 -42 -60 -46 -33 -19 16 15 31 27 35 27 4 0 3 -3 -2 -8z m308
-48 c-63 -67 -71 -95 -10 -39 l42 40 -38 -41 c-38 -41 -74 -57 -57 -24 12 23
100 120 109 120 4 0 -17 -25 -46 -56z m92 46 c-3 -5 -12 -10 -18 -10 -7 0 -6
4 3 10 19 12 23 12 15 0z m1268 -35 c9 -18 9 -19 -6 -6 -10 7 -17 23 -16 35 0
14 2 16 6 6 3 -8 10 -24 16 -35z m-1403 21 c0 -2 -8 -10 -17 -17 -16 -13 -17
-12 -4 4 13 16 21 21 21 13z m351 -3 c-13 -3 -20 -8 -15 -11 6 -4 -14 -19 -43
-33 -33 -16 -48 -20 -40 -10 10 12 9 14 -8 8 l-20 -7 20 16 c31 25 77 43 105
42 l25 -1 -24 -4z m1013 -9 c3 -8 2 -12 -4 -9 -6 3 -10 10 -10 16 0 14 7 11
14 -7z m123 -6 c-3 -8 -6 -5 -6 6 -1 11 2 17 5 13 3 -3 4 -12 1 -19z m209 -10
l29 -33 -32 29 c-31 28 -38 36 -30 36 2 0 16 -15 33 -32z m69 -19 c-9 -17 -19
-29 -22 -26 -5 5 25 57 33 57 3 0 -3 -14 -11 -31z m222 9 c-3 -8 -6 -5 -6 6
-1 11 2 17 5 13 3 -3 4 -12 1 -19z m214 -1 c-10 -9 -11 -8 -5 6 3 10 9 15 12
12 3 -3 0 -11 -7 -18z m-2563 -24 c-14 -16 -32 -39 -41 -53 -10 -13 -17 -20
-17 -14 0 12 68 94 78 94 3 0 -6 -12 -20 -27z m82 24 c0 -2 -19 -19 -42 -37
-24 -19 -37 -27 -31 -19 7 9 9 20 5 24 -4 5 -2 6 3 2 6 -3 22 3 35 14 26 19
30 21 30 16z m2090 -7 c-8 -5 -19 -10 -25 -10 -5 0 -3 5 5 10 8 5 20 10 25 10
6 0 3 -5 -5 -10z m-1649 -27 c-18 -16 -46 -44 -63 -63 l-30 -35 26 38 c30 41
25 49 -11 15 -13 -12 -23 -17 -23 -12 0 10 50 46 65 46 6 0 21 9 34 19 37 30
39 22 2 -8z m196 21 c-3 -3 -12 -4 -19 -1 -8 3 -5 6 6 6 11 1 17 -2 13 -5z
m1936 -14 c-3 -12 -8 -19 -11 -16 -5 6 5 36 12 36 2 0 2 -9 -1 -20z m-2112
-27 c-24 -21 -57 -57 -73 -82 -30 -48 -38 -49 -13 -2 14 27 110 121 124 121 3
0 -14 -17 -38 -37z m119 23 c0 -2 -20 -16 -45 -32 -28 -17 -43 -34 -40 -42 2
-7 1 -11 -4 -7 -9 5 -26 -13 -59 -61 -10 -16 -11 -15 -1 6 19 40 47 73 92 107
38 29 57 39 57 29z m950 -1 c0 -2 -10 -9 -22 -15 -22 -11 -22 -10 -4 4 21 17
26 19 26 11z m260 -30 c0 -17 -25 -20 -35 -5 -3 6 1 7 9 4 9 -3 16 -1 16 5 0
6 2 11 5 11 3 0 5 -7 5 -15z m-1602 -20 c-6 -14 -13 -23 -15 -21 -5 5 15 46
22 46 3 0 -1 -11 -7 -25z m268 -15 c-14 -17 -26 -29 -26 -25 0 10 43 65 48 60
2 -2 -7 -18 -22 -35z m1484 30 c-8 -5 -19 -10 -25 -10 -5 0 -3 5 5 10 8 5 20
10 25 10 6 0 3 -5 -5 -10z m611 -17 c-12 -20 -14 -14 -5 12 4 9 9 14 11 11 3
-2 0 -13 -6 -23z m-1085 9 c-6 -11 29 -88 45 -97 8 -5 10 -4 5 3 -4 7 -5 12
-2 12 3 0 12 -12 20 -27 8 -16 33 -50 56 -76 43 -48 43 -48 14 -41 -16 4 -46
23 -67 43 -42 40 -69 79 -45 66 7 -3 6 -1 -3 7 -9 7 -14 19 -11 27 3 8 0 11
-7 7 -7 -5 -9 -1 -5 9 4 8 -1 26 -10 39 -12 18 -12 26 -3 29 18 8 19 8 13 -1z
m31 -14 c-3 -8 -6 -5 -6 6 -1 11 2 17 5 13 3 -3 4 -12 1 -19z m503 12 c-8 -5
-19 -10 -25 -10 -5 0 -3 5 5 10 8 5 20 10 25 10 6 0 3 -5 -5 -10z m-2080 -3
c0 -2 -12 -14 -27 -28 l-28 -24 24 28 c23 25 31 32 31 24z m27 -12 c0 -8 -5
-11 -10 -8 -7 4 -8 -1 -3 -13 4 -10 4 -15 0 -11 -4 4 -14 1 -23 -6 -8 -6 -5 3
8 21 25 36 28 38 28 17z m673 11 c0 -2 -7 -7 -16 -10 -8 -3 -12 -2 -9 4 6 10
25 14 25 6z m100 -16 c0 -5 -8 -10 -19 -10 -10 0 -38 -7 -62 -15 -53 -19 -43
-6 14 17 49 20 67 22 67 8z m-165 -9 c3 -5 2 -12 -3 -15 -5 -3 -9 1 -9 9 0 17
3 19 12 6z m225 0 c0 -4 -11 -6 -25 -3 -14 2 -25 6 -25 8 0 2 11 4 25 4 14 0
25 -4 25 -9z m898 -16 c-3 -3 -9 2 -12 12 -6 14 -5 15 5 6 7 -7 10 -15 7 -18z
m127 15 c-3 -5 -12 -10 -18 -10 -7 0 -6 4 3 10 19 12 23 12 15 0z m51 1 c-6
-9 -46 -22 -46 -15 0 3 10 9 23 14 29 11 29 11 23 1z m-1596 -5 c0 -3 -4 -8
-10 -11 -5 -3 -10 -1 -10 4 0 6 5 11 10 11 6 0 10 -2 10 -4z m1296 -18 c0 -10
-1 -18 -3 -18 -1 0 -7 8 -12 18 -7 13 -6 19 2 19 7 0 13 -9 13 -19z m905 -5
c-12 -20 -14 -14 -5 12 4 9 9 14 11 11 3 -2 0 -13 -6 -23z m-2294 -15 c-3 -7
-5 -2 -5 12 0 14 2 19 5 13 2 -7 2 -19 0 -25z m644 15 c13 -16 12 -17 -3 -4
-17 13 -22 21 -14 21 2 0 10 -8 17 -17z m594 7 c4 -6 -1 -7 -12 -3 -16 6 -16
5 -4 -10 7 -9 18 -14 25 -10 6 3 8 2 3 -2 -4 -5 5 -22 20 -39 15 -17 7 -11
-19 13 -26 24 -45 48 -42 53 7 11 21 10 29 -2z m958 -5 c-3 -9 -8 -14 -10 -11
-3 3 -2 9 2 15 9 16 15 13 8 -4z m-573 -5 c-8 -6 -24 -16 -35 -22 -20 -11 -20
-11 -1 11 11 11 26 21 35 21 14 0 14 -2 1 -10z m70 5 c0 -2 -22 -16 -50 -30
-27 -14 -50 -23 -50 -20 0 2 21 16 48 29 53 28 52 28 52 21z m370 -166 l-11
-24 6 25 c2 14 6 59 7 100 l2 75 3 -76 c2 -41 -1 -86 -7 -100z m-2367 146 c-3
-9 -8 -14 -10 -11 -3 3 -2 9 2 15 9 16 15 13 8 -4z m344 -7 c-3 -8 -6 -5 -6 6
-1 11 2 17 5 13 3 -3 4 -12 1 -19z m30 0 c-3 -8 -6 -5 -6 6 -1 11 2 17 5 13 3
-3 4 -12 1 -19z m69 10 c4 -7 3 -10 -1 -5 -5 4 -18 -1 -29 -10 -21 -18 -21
-18 -2 5 22 26 23 26 32 10z m37 -3 c-3 -9 -8 -14 -10 -11 -3 3 -2 9 2 15 9
16 15 13 8 -4z m70 0 c-3 -9 -8 -14 -10 -11 -3 3 -2 9 2 15 9 16 15 13 8 -4z
m177 11 c0 -2 -7 -7 -16 -10 -8 -3 -12 -2 -9 4 6 10 25 14 25 6z m194 -4 c5
-8 -82 -7 -90 1 -3 3 15 5 40 5 25 0 48 -3 50 -6z m659 -115 c5 -16 6 -31 4
-34 -3 -2 -8 11 -12 29 -4 18 -25 52 -46 75 -22 24 -39 46 -39 49 0 17 86 -93
93 -119z m-1554 92 c-6 -12 -9 -32 -6 -45 2 -13 0 -21 -4 -18 -17 10 -2 84 17
84 2 0 0 -10 -7 -21z m1434 2 c-12 -10 -19 -22 -15 -26 4 -5 1 -5 -7 0 -11 6
-9 12 10 26 31 24 41 24 12 0z m377 -25 c0 -26 -6 -18 -14 19 -5 22 -4 26 4
15 5 -8 10 -24 10 -34z m-891 18 c10 -9 -35 -3 -49 6 -11 8 -7 9 15 4 17 -4
32 -8 34 -10z m441 11 c0 -2 -10 -9 -22 -15 -22 -11 -22 -10 -4 4 21 17 26 19
26 11z m1017 -137 c-2 -29 -3 -8 -3 47 0 55 1 79 3 53 2 -26 2 -71 0 -100z
m-2353 98 c-3 -15 -8 -25 -11 -23 -2 3 -1 17 3 31 3 15 8 25 11 23 2 -3 1 -17
-3 -31z m547 11 c-10 -9 -11 -8 -5 6 3 10 9 15 12 12 3 -3 0 -11 -7 -18z m165
11 c4 -7 3 -8 -5 -4 -6 4 -28 -2 -47 -13 -50 -29 -57 -26 -9 4 45 28 51 29 61
13z m1821 -10 c-3 -8 -6 -5 -6 6 -1 11 2 17 5 13 3 -3 4 -12 1 -19z m-2242
-39 c-10 -21 -14 -24 -10 -9 4 14 7 33 8 42 1 10 5 14 9 10 5 -5 1 -24 -7 -43z
m141 -61 c5 -9 4 -10 -3 -3 -16 15 -30 68 -24 90 3 13 7 3 12 -27 4 -26 11
-53 15 -60z m11 70 c-3 -7 -5 -2 -5 12 0 14 2 19 5 13 2 -7 2 -19 0 -25z m153
29 c0 -2 -12 -14 -27 -28 l-28 -24 24 28 c23 25 31 32 31 24z m1810 -1 c0 -2
-8 -10 -17 -17 -16 -13 -17 -12 -4 4 13 16 21 21 21 13z m-988 -64 c46 -44 58
-38 18 9 -16 19 -29 37 -30 42 0 8 13 -5 83 -79 l47 -51 -46 8 c-26 5 -54 14
-63 21 -41 30 -100 92 -95 100 7 12 43 -9 86 -50z m-622 38 c8 -5 11 -10 5
-10 -5 0 -17 5 -25 10 -8 5 -10 10 -5 10 6 0 17 -5 25 -10z m1090 -10 c6 -11
8 -20 6 -20 -3 0 -10 9 -16 20 -6 11 -8 20 -6 20 3 0 10 -9 16 -20z m-1621
-35 c0 -5 -4 -3 -9 5 -5 8 -9 22 -9 30 0 16 17 -16 18 -35z m2209 20 c-3 -3
-9 2 -12 12 -6 14 -5 15 5 6 7 -7 10 -15 7 -18z m-1892 -11 c-14 -15 -26 -31
-26 -37 0 -6 -3 -8 -6 -4 -8 8 34 67 48 67 6 0 -1 -12 -16 -26z m319 17 c3 -5
1 -12 -5 -16 -5 -3 -10 1 -10 9 0 18 6 21 15 7z m1376 -8 c12 -16 12 -17 -1
-7 -8 6 -22 14 -30 17 -13 5 -12 6 1 6 9 1 23 -7 30 -16z m-1412 -16 c0 -12
-121 -117 -134 -117 -3 0 17 19 44 43 27 23 48 47 46 53 -2 6 4 11 13 10 10
-1 16 6 16 16 -1 10 2 15 7 12 5 -3 9 -11 8 -17z m848 16 c-4 -3 1 -16 10 -27
18 -21 18 -21 -4 -2 -20 16 -23 36 -6 36 4 0 3 -3 0 -7z m-1306 -48 c7 -13 3
-12 -10 5 -11 14 -21 30 -21 35 0 11 14 -7 31 -40z m764 35 c-3 -5 -12 -10
-18 -10 -7 0 -6 4 3 10 19 12 23 12 15 0z m96 -7 c13 -16 12 -17 -3 -4 -17 13
-22 21 -14 21 2 0 10 -8 17 -17z m-768 -47 c6 4 9 4 5 -1 -4 -4 0 -14 10 -22
15 -13 15 -13 -5 -4 -24 12 -63 58 -63 75 0 6 9 -4 20 -22 13 -21 25 -30 33
-26z m437 50 c0 -3 -4 -8 -10 -11 -5 -3 -10 -1 -10 4 0 6 5 11 10 11 6 0 10
-2 10 -4z m954 -48 c15 -27 25 -48 22 -48 -7 0 -56 84 -56 95 0 11 1 9 34 -47z
m371 42 c3 -6 -1 -7 -9 -4 -10 4 -16 1 -16 -7 0 -7 -3 -10 -6 -6 -7 7 4 27 16
27 5 0 12 -4 15 -10z m222 -12 c-3 -8 -6 -5 -6 6 -1 11 2 17 5 13 3 -3 4 -12
1 -19z m-1612 -23 c-22 -19 -39 -40 -37 -45 1 -6 -1 -9 -5 -8 -5 1 -19 -4 -33
-11 -14 -8 -23 -11 -20 -9 17 18 126 108 130 108 3 -1 -13 -16 -35 -35z m265
26 c0 -5 -7 -12 -16 -15 -14 -5 -15 -4 -4 9 14 17 20 19 20 6z m179 -31 c10
-21 10 -22 -1 -10 -16 18 -72 15 -88 -6 -7 -8 -22 -14 -33 -14 -15 0 -10 6 18
20 22 11 50 20 62 20 13 0 23 5 23 12 0 14 4 10 19 -22z m1098 -37 c-2 -16 -4
-5 -4 22 0 28 2 40 4 28 2 -13 2 -35 0 -50z m-1217 53 c0 -2 -8 -10 -17 -17
-16 -13 -17 -12 -4 4 13 16 21 21 21 13z m416 -8 c4 -6 3 -8 -4 -4 -6 3 -18
-4 -26 -16 -9 -13 -16 -17 -16 -9 0 8 8 20 18 27 21 16 19 16 28 2z m911 -10
c-3 -8 -6 -5 -6 6 -1 11 2 17 5 13 3 -3 4 -12 1 -19z m-1477 -12 c-30 -13 -66
-26 -80 -30 -14 -3 -10 1 10 9 19 9 49 22 65 30 17 7 37 14 45 14 8 0 -10 -10
-40 -23z m749 -2 c14 -12 -19 -1 -35 12 -18 14 -18 14 6 3 14 -6 27 -13 29
-15z m34 6 c3 -11 1 -20 -4 -20 -5 0 -9 9 -9 20 0 11 2 20 4 20 2 0 6 -9 9
-20z m363 -26 l-7 -26 -20 26 c-24 30 -44 33 -59 9 -7 -11 -10 -12 -7 -4 2 8
11 19 20 25 12 8 22 5 42 -14 l25 -23 1 29 c0 16 3 23 6 16 3 -7 2 -24 -1 -38z
m-1651 -33 c28 -11 43 -20 35 -20 -27 -1 -95 36 -120 65 l-25 29 30 -27 c17
-15 53 -36 80 -47z m114 22 c12 -24 19 -43 16 -43 -5 0 -45 75 -45 86 0 11 6
2 29 -43z m1215 19 c13 -24 13 -29 1 -29 -8 0 -12 4 -9 8 3 5 0 18 -6 29 -6
11 -8 20 -6 20 3 0 12 -13 20 -28z m-1443 1 c13 -16 12 -17 -3 -4 -10 7 -18
15 -18 17 0 8 8 3 21 -13z m723 -4 c-32 -13 -50 -9 -24 5 14 7 29 10 34 8 5
-3 1 -9 -10 -13z m531 3 c-3 -3 -11 0 -18 7 -9 10 -8 11 6 5 10 -3 15 -9 12
-12z m542 -29 c-3 -10 -5 -2 -5 17 0 19 2 27 5 18 2 -10 2 -26 0 -35z m40 25
c-3 -8 -6 -5 -6 6 -1 11 2 17 5 13 3 -3 4 -12 1 -19z m180 -50 c-2 -13 -4 -3
-4 22 0 25 2 35 4 23 2 -13 2 -33 0 -45z m26 -25 c-18 -26 -19 -27 -29 -11 -4
6 -3 8 3 5 14 -9 23 15 24 61 l1 37 8 -34 c6 -25 4 -41 -7 -58z m-1898 67 c3
-5 2 -10 -4 -10 -5 0 -13 5 -16 10 -3 6 -2 10 4 10 5 0 13 -4 16 -10z m49 -6
c5 -14 4 -15 -9 -4 -17 14 -19 20 -6 20 5 0 12 -7 15 -16z m1383 10 c-3 -3
-12 -4 -19 -1 -8 3 -5 6 6 6 11 1 17 -2 13 -5z m135 -36 c-5 -71 -10 -77 -11
-15 0 31 2 57 7 57 4 0 6 -19 4 -42z m-372 22 c18 -12 2 -12 -25 0 -13 6 -15
9 -5 9 8 0 22 -4 30 -9z m197 -12 c-3 -8 -6 -5 -6 6 -1 11 2 17 5 13 3 -3 4
-12 1 -19z m141 -78 c-2 -4 -23 18 -47 49 l-43 56 46 -49 c26 -27 45 -52 44
-56z m516 60 c-5 -5 -10 3 -11 18 -1 22 0 24 9 8 6 -10 6 -22 2 -26z m-1117
24 c-3 -3 -12 -4 -19 -1 -8 3 -5 6 6 6 11 1 17 -2 13 -5z m770 -16 c-3 -8 -6
-5 -6 6 -1 11 2 17 5 13 3 -3 4 -12 1 -19z m42 -42 c4 -31 5 -59 1 -61 -3 -2
-7 13 -8 33 -1 20 -5 51 -8 67 -4 17 -3 27 1 23 3 -3 10 -31 14 -62z m-1192
48 c-3 -3 -12 -4 -19 -1 -8 3 -5 6 6 6 11 1 17 -2 13 -5z m623 -29 c0 -5 -5
-3 -10 5 -5 8 -10 20 -10 25 0 6 5 3 10 -5 5 -8 10 -19 10 -25z m83 28 c-7 -2
-21 -2 -30 0 -10 3 -4 5 12 5 17 0 24 -2 18 -5z m198 -20 c14 -16 29 -35 35
-43 5 -9 -4 -1 -20 18 -19 22 -31 29 -36 22 -5 -8 -9 -4 -13 9 -7 29 4 26 34
-6z m-253 -8 c-3 -3 -9 2 -12 12 -6 14 -5 15 5 6 7 -7 10 -15 7 -18z m131 -50
c0 -5 -8 6 -19 25 -11 19 -19 40 -19 45 0 6 8 -6 19 -25 11 -19 19 -39 19 -45z
m-1109 61 c0 -2 -12 -11 -27 -20 l-28 -17 24 20 c23 21 31 25 31 17z m30 -12
c-8 -8 -23 -20 -34 -25 -13 -7 -9 -1 9 15 34 29 43 33 25 10z m183 9 c-7 -2
-19 -2 -25 0 -7 3 -2 5 12 5 14 0 19 -2 13 -5z m957 -13 c0 7 2 11 5 8 7 -7
25 -68 20 -68 -2 0 -18 19 -36 43 -20 25 -24 34 -11 23 15 -13 22 -15 22 -6z
m447 -12 c-3 -7 -5 -2 -5 12 0 14 2 19 5 13 2 -7 2 -19 0 -25z m-1454 15 c-7
-2 -21 -2 -30 0 -10 3 -4 5 12 5 17 0 24 -2 18 -5z m110 0 c-7 -2 -19 -2 -25
0 -7 3 -2 5 12 5 14 0 19 -2 13 -5z m347 2 c0 -2 -20 -18 -45 -35 -25 -17 -45
-29 -45 -26 0 4 80 64 88 66 1 0 2 -2 2 -5z m690 -5 c0 -5 -2 -10 -4 -10 -3 0
-8 5 -11 10 -3 6 -1 10 4 10 6 0 11 -4 11 -10z m-990 -10 c0 -5 -2 -10 -4 -10
-3 0 -8 5 -11 10 -3 6 -1 10 4 10 6 0 11 -4 11 -10z m1043 -10 c3 -11 1 -18
-4 -14 -5 3 -9 12 -9 20 0 20 7 17 13 -6z m-1665 -25 c29 -45 22 -45 -12 0
-15 19 -23 35 -19 35 4 0 18 -16 31 -35z m1302 15 c6 -11 8 -20 6 -20 -3 0
-10 9 -16 20 -6 11 -8 20 -6 20 3 0 10 -9 16 -20z m-1115 -19 l20 -24 -22 12
c-13 6 -23 19 -23 28 0 9 1 14 3 12 1 -2 11 -15 22 -28z m63 -16 c9 1 11 0 4
-2 -7 -3 -10 -9 -7 -14 4 -5 3 -9 -1 -9 -8 0 -30 27 -45 55 -5 11 -1 8 11 -7
11 -14 28 -25 38 -23z m172 41 c0 -2 -11 -6 -25 -8 -13 -3 -22 -1 -19 3 5 9
44 13 44 5z m275 -6 c3 -5 1 -10 -4 -10 -6 0 -11 5 -11 10 0 6 2 10 4 10 3 0
8 -4 11 -10z m54 -20 c11 -24 11 -24 -3 -6 -15 19 -16 19 -16 1 0 -10 -3 -16
-6 -12 -3 3 -3 15 1 27 8 24 8 24 24 -10z m631 10 c6 -11 8 -20 6 -20 -3 0
-10 9 -16 20 -6 11 -8 20 -6 20 3 0 10 -9 16 -20z m70 -5 c13 -14 21 -25 18
-25 -2 0 -15 11 -28 25 -13 14 -21 25 -18 25 2 0 15 -11 28 -25z m430 -8 c10
-3 29 2 42 10 l23 15 -22 -20 c-29 -26 -73 -19 -72 12 1 15 3 16 6 5 2 -10 13
-19 23 -22z m-1383 17 c-3 -3 -12 -4 -19 -1 -8 3 -5 6 6 6 11 1 17 -2 13 -5z
m199 -46 l19 -23 -26 23 c-14 12 -30 22 -36 22 -6 0 -16 7 -23 15 -11 13 -8
13 17 0 17 -8 38 -25 49 -37z m569 43 c-2 -2 6 -12 18 -23 22 -20 22 -20 -13
0 -19 11 -42 22 -50 25 -8 3 -1 4 17 4 17 -1 30 -4 28 -6z m730 -1 c-3 -5 -16
-15 -28 -21 -19 -9 -19 -8 3 10 28 23 34 26 25 11z m-1875 -16 c0 4 13 -1 30
-11 16 -9 29 -24 27 -32 -1 -8 16 -25 38 -38 22 -12 35 -23 29 -23 -17 0 -97
56 -129 91 -16 18 -22 27 -12 20 9 -7 17 -10 17 -7z m815 -14 l20 -25 -22 19
c-13 11 -23 24 -23 29 0 6 1 8 3 6 1 -2 11 -15 22 -29z m115 20 c11 -8 7 -9
-15 -4 -37 8 -45 14 -19 14 10 0 26 -5 34 -10z m477 -12 c-3 -8 -6 -5 -6 6 -1
11 2 17 5 13 3 -3 4 -12 1 -19z m-1427 -23 c28 -29 31 -35 15 -35 -10 0 -15 3
-12 7 4 4 -5 19 -20 35 -15 15 -25 28 -22 28 3 0 20 -16 39 -35z m505 14 c5
-5 -6 -4 -25 2 -45 15 -54 24 -15 15 17 -4 34 -12 40 -17z m556 -10 c-5 -13
-10 -19 -10 -12 -1 15 10 45 15 40 3 -2 0 -15 -5 -28z m969 15 c0 -2 -7 -4
-15 -4 -8 0 -15 4 -15 10 0 5 7 7 15 4 8 -4 15 -8 15 -10z m-1230 -9 c9 -10 9
-15 1 -15 -6 0 -11 5 -11 11 0 6 -7 8 -16 5 -8 -3 -12 -2 -9 4 9 14 21 12 35
-5z m320 5 c0 -5 -7 -7 -15 -4 -8 4 -15 8 -15 10 0 2 7 4 15 4 8 0 15 -4 15
-10z m214 -6 c3 -8 2 -12 -4 -9 -6 3 -10 10 -10 16 0 14 7 11 14 -7z m-1064
-3 c0 -4 -11 -6 -25 -3 -14 2 -25 6 -25 8 0 2 11 4 25 4 14 0 25 -4 25 -9z
m107 3 c-3 -3 -12 -4 -19 -1 -8 3 -5 6 6 6 11 1 17 -2 13 -5z m500 -16 c-3 -8
-6 -5 -6 6 -1 11 2 17 5 13 3 -3 4 -12 1 -19z m43 18 c0 -3 -4 -8 -10 -11 -5
-3 -10 -1 -10 4 0 6 5 11 10 11 6 0 10 -2 10 -4z m314 -12 c3 -8 2 -12 -4 -9
-6 3 -10 10 -10 16 0 14 7 11 14 -7z m400 1 c3 -8 1 -15 -4 -15 -6 0 -10 7
-10 15 0 8 2 15 4 15 2 0 6 -7 10 -15z m-1653 -12 c13 -16 12 -17 -3 -4 -10 7
-18 15 -18 17 0 8 8 3 21 -13z m434 7 c-11 -5 -36 -8 -55 -8 l-35 1 40 7 c57
10 74 10 50 0z m332 -5 c0 -8 -4 -12 -9 -9 -5 3 -6 10 -3 15 9 13 12 11 12 -6z
m345 -12 c-3 -16 -7 -22 -10 -15 -4 13 4 42 11 42 2 0 2 -12 -1 -27z m118 -25
c0 -9 -4 -20 -10 -23 -6 -3 -7 1 -4 10 4 10 -3 27 -17 42 l-24 26 27 -19 c15
-10 28 -27 28 -36z m206 21 c4 -8 1 -8 -14 0 -12 6 -24 16 -28 22 -4 8 -1 8
14 0 12 -6 24 -16 28 -22z m104 9 c0 -6 -6 -5 -15 2 -8 7 -15 14 -15 16 0 2 7
1 15 -2 8 -4 15 -11 15 -16z m202 -8 c-18 -17 -42 -30 -55 -29 -17 1 -16 3 9
10 17 5 39 18 49 29 10 11 21 20 24 20 3 0 -9 -14 -27 -30z m-1592 -6 c0 -2
-9 0 -20 6 -11 6 -20 13 -20 16 0 2 9 0 20 -6 11 -6 20 -13 20 -16z m377 -4
c32 -16 54 -29 48 -29 -5 0 -32 10 -58 23 -27 13 -58 22 -70 20 -22 -4 -20 -3
20 15 0 1 27 -12 60 -29z m60 24 c-8 -8 46 -54 64 -55 10 0 10 -2 2 -6 -15 -5
-84 47 -77 59 3 4 8 8 11 8 4 0 4 -3 0 -6z m584 -11 c13 -16 12 -17 -3 -4 -10
7 -18 15 -18 17 0 8 8 3 21 -13z m403 1 c3 -8 2 -12 -4 -9 -6 3 -10 10 -10 16
0 14 7 11 14 -7z m136 6 c-8 -5 -22 -9 -30 -9 -10 0 -8 3 5 9 27 12 43 12 25
0z m-1740 -25 c13 -14 19 -25 14 -25 -8 1 -50 50 -41 50 2 0 14 -11 27 -25z
m890 -10 c0 -5 -5 -3 -10 5 -5 8 -10 20 -10 25 0 6 5 3 10 -5 5 -8 10 -19 10
-25z m295 9 c9 -15 12 -23 6 -20 -11 7 -35 46 -28 46 3 0 12 -12 22 -26z
m-838 10 c-3 -3 -12 -4 -19 -1 -8 3 -5 6 6 6 11 1 17 -2 13 -5z m427 -9 c25
-19 16 -19 -20 0 -16 8 -22 15 -14 15 8 -1 24 -7 34 -15z m-611 -44 c15 -6 27
-16 27 -23 0 -8 -3 -9 -8 -3 -4 6 -28 21 -54 34 -26 13 -45 28 -42 33 3 5 16
0 28 -11 11 -11 33 -24 49 -30z m273 18 c3 -6 -5 -3 -20 6 -14 10 -26 19 -26
22 0 7 39 -17 46 -28z m649 1 c9 -16 13 -30 11 -30 -3 0 -12 14 -21 30 -9 17
-13 30 -11 30 3 0 12 -13 21 -30z m-1015 -6 c0 -2 -9 0 -20 6 -11 6 -20 13
-20 16 0 2 9 0 20 -6 11 -6 20 -13 20 -16z m450 -31 c0 -7 -58 36 -66 49 -4 7
9 -1 29 -16 20 -16 37 -30 37 -33z m710 47 c0 -5 -2 -10 -4 -10 -3 0 -8 5 -11
10 -3 6 -1 10 4 10 6 0 11 -4 11 -10z m105 -32 c16 -24 22 -38 14 -31 -15 12
-53 73 -46 73 2 0 17 -19 32 -42z m224 26 c10 -9 -35 -3 -49 6 -11 8 -7 9 15
4 17 -4 32 -8 34 -10z m-266 -14 c3 -11 1 -18 -4 -14 -5 3 -9 0 -9 -7 0 -7 -2
-10 -5 -8 -4 5 5 49 10 49 1 0 5 -9 8 -20z m-746 4 c-3 -3 -12 -4 -19 -1 -8 3
-5 6 6 6 11 1 17 -2 13 -5z m443 -4 c8 -5 11 -10 5 -10 -5 0 -17 5 -25 10 -8
5 -10 10 -5 10 6 0 17 -5 25 -10z m180 -37 c0 -8 -38 17 -51 33 -9 11 -2 9 19
-6 17 -13 32 -25 32 -27z m440 43 c0 -2 -7 -7 -16 -10 -8 -3 -12 -2 -9 4 6 10
25 14 25 6z m-1505 -24 c-3 -3 -11 0 -18 7 -9 10 -8 11 6 5 10 -3 15 -9 12
-12z m485 8 c8 -5 11 -10 5 -10 -5 0 -17 5 -25 10 -8 5 -10 10 -5 10 6 0 17
-5 25 -10z m377 -16 c-5 -5 -57 13 -57 20 0 3 14 0 31 -6 16 -6 28 -12 26 -14z
m488 7 c-3 -6 -16 -16 -28 -23 -20 -10 -20 -9 3 15 24 25 39 29 25 8z m-969
-13 l19 -23 -25 20 c-14 11 -27 21 -29 22 -2 2 0 3 6 3 5 0 18 -10 29 -22z
m764 12 c0 -5 -2 -10 -4 -10 -3 0 -8 5 -11 10 -3 6 -1 10 4 10 6 0 11 -4 11
-10z m317 4 c-3 -3 -12 -4 -19 -1 -8 3 -5 6 6 6 11 1 17 -2 13 -5z m-675 -16
c-4 -3 -25 -2 -47 2 l-40 8 47 -1 c26 -1 44 -5 40 -9z m185 6 c-3 -3 -12 -4
-19 -1 -8 3 -5 6 6 6 11 1 17 -2 13 -5z m-878 -209 c19 -21 20 -25 4 -12 -25
21 -163 201 -163 212 0 5 30 -32 66 -81 37 -49 79 -102 93 -119z m-54 195 c3
-6 -1 -7 -9 -4 -18 7 -21 14 -7 14 6 0 13 -4 16 -10z m863 1 c11 -6 10 -10 -4
-15 -9 -3 -19 -4 -22 -1 -3 3 1 5 9 5 11 0 11 2 -1 10 -8 5 -10 10 -5 10 6 0
16 -4 23 -9z m180 -41 c6 0 13 -4 16 -9 12 -19 -33 2 -65 31 l-34 29 36 -25
c20 -14 41 -26 47 -26z m672 47 c0 -1 -26 -27 -57 -57 l-58 -55 55 58 c50 53
60 62 60 54z m-1624 -23 c18 -14 18 -14 -6 -3 -31 14 -36 19 -24 19 6 0 19 -7
30 -16z m999 6 c-3 -5 -12 -10 -18 -10 -7 0 -6 4 3 10 19 12 23 12 15 0z
m-935 -10 c8 -5 11 -10 5 -10 -5 0 -17 5 -25 10 -8 5 -10 10 -5 10 6 0 17 -5
25 -10z m375 0 c3 -6 -1 -7 -9 -4 -18 7 -21 14 -7 14 6 0 13 -4 16 -10z m78 3
c-7 -2 -19 -2 -25 0 -7 3 -2 5 12 5 14 0 19 -2 13 -5z m44 1 c-3 -3 -12 -4
-19 -1 -8 3 -5 6 6 6 11 1 17 -2 13 -5z m301 -1 c-10 -2 -28 -2 -40 0 -13 2
-5 4 17 4 22 1 32 -1 23 -4z m-893 -21 c-3 -3 -11 0 -18 7 -9 10 -8 11 6 5 10
-3 15 -9 12 -12z m386 1 c13 -16 12 -17 -3 -4 -10 7 -18 15 -18 17 0 8 8 3 21
-13z m252 10 c-7 -2 -19 -2 -25 0 -7 3 -2 5 12 5 14 0 19 -2 13 -5z m-456 -33
c10 0 25 -5 33 -11 11 -8 9 -9 -10 -3 -23 6 -24 6 -10 -12 8 -10 -6 -3 -32 16
-50 35 -67 55 -23 26 13 -9 32 -16 42 -16z m863 10 c-24 -15 -36 -11 -14 4 10
8 21 12 24 10 2 -3 -2 -9 -10 -14z m-940 -5 c17 -9 30 -18 30 -21 0 -4 -59 23
-69 32 -10 9 13 3 39 -11z m155 5 c3 -6 -1 -7 -9 -4 -18 7 -21 14 -7 14 6 0
13 -4 16 -10z m520 0 c13 -6 15 -9 5 -9 -8 0 -22 4 -30 9 -18 12 -2 12 25 0z
m140 -10 c28 -10 43 -19 35 -19 -17 0 -110 38 -95 38 6 1 33 -8 60 -19z m273
13 c-10 -2 -28 -2 -40 0 -13 2 -5 4 17 4 22 1 32 -1 23 -4z m-852 -29 c19 -15
19 -15 -1 -6 -11 5 -27 12 -35 15 -13 5 -13 6 1 6 8 1 24 -6 35 -15z m46 1 c0
-6 12 -16 27 -22 26 -13 26 -13 1 -7 -14 4 -32 10 -40 15 -13 7 -13 8 0 9 13
0 13 1 0 11 -10 7 -11 9 -2 7 8 -2 14 -8 14 -13z m478 -5 c8 -5 11 -10 5 -10
-5 0 -17 5 -25 10 -8 5 -10 10 -5 10 6 0 17 -5 25 -10z m-579 -21 c17 -14 18
-18 5 -11 -10 5 -26 8 -35 7 -10 -1 -11 0 -2 2 12 4 12 6 0 14 -8 5 -9 9 -3 9
7 0 22 -9 35 -21z m732 14 c-7 -2 -21 -2 -30 0 -10 3 -4 5 12 5 17 0 24 -2 18
-5z m-883 -13 c8 -5 11 -10 5 -10 -5 0 -17 5 -25 10 -8 5 -10 10 -5 10 6 0 17
-5 25 -10z m234 -22 c-3 -5 -12 -4 -20 3 -19 16 -18 18 6 12 11 -3 17 -9 14
-15z m951 12 c-3 -5 -18 -9 -33 -9 l-27 1 30 8 c17 4 31 8 33 9 2 0 0 -3 -3
-9z m130 0 c-3 -5 -14 -10 -23 -9 -14 0 -13 2 3 9 27 11 27 11 20 0z m82 4
c-3 -3 -12 -4 -19 -1 -8 3 -5 6 6 6 11 1 17 -2 13 -5z m-554 -11 c-7 -2 -19
-2 -25 0 -7 3 -2 5 12 5 14 0 19 -2 13 -5z m84 1 c-3 -3 -12 -4 -19 -1 -8 3
-5 6 6 6 11 1 17 -2 13 -5z m-840 -24 c14 -11 21 -20 15 -20 -6 0 -13 4 -17
10 -3 5 -11 8 -18 6 -7 -1 -8 -1 -3 2 4 2 2 8 -5 13 -8 5 -10 9 -6 9 5 0 20
-9 34 -20z m153 -26 c0 -3 -13 4 -30 16 -16 12 -30 24 -30 26 0 3 14 -4 30
-16 17 -12 30 -24 30 -26z m18 37 c-2 -4 8 -18 22 -31 l25 -22 -33 22 c-18 12
-30 26 -27 31 8 11 16 12 13 0z m112 -6 c11 -13 10 -14 -4 -9 -9 3 -16 10 -16
15 0 13 6 11 20 -6z m-183 -47 c3 -7 -8 -2 -25 10 -17 13 -35 28 -39 34 -3 7
8 2 25 -10 17 -13 35 -28 39 -34z m773 42 c0 -5 -5 -10 -11 -10 -5 0 -7 5 -4
10 3 6 8 10 11 10 2 0 4 -4 4 -10z m67 4 c-3 -3 -12 -4 -19 -1 -8 3 -5 6 6 6
11 1 17 -2 13 -5z m-687 -19 c17 -9 30 -18 30 -21 0 -4 -59 23 -69 32 -10 9
13 3 39 -11z m130 -62 c0 -2 -18 10 -40 27 -22 17 -40 34 -40 37 0 2 18 -10
40 -27 22 -17 40 -34 40 -37z m690 54 c0 -2 -14 -16 -32 -33 l-32 -29 25 32
c20 27 39 41 39 30z m-860 -44 c0 -7 -39 17 -46 28 -3 6 5 3 20 -6 14 -10 26
-19 26 -22z m787 31 c-3 -3 -12 -4 -19 -1 -8 3 -5 6 6 6 11 1 17 -2 13 -5z
m-1022 -14 c3 -6 -1 -7 -9 -4 -18 7 -21 14 -7 14 6 0 13 -4 16 -10z m77 -7
c10 -3 15 -9 12 -14 -5 -8 10 -13 30 -10 7 2 48 -28 100 -72 l21 -18 -21 10
c-12 6 -24 8 -28 6 -3 -3 -4 -2 -1 2 8 10 -16 33 -28 26 -6 -4 -7 -1 -3 6 6 8
2 11 -10 9 -12 -2 -18 2 -16 11 2 8 -3 11 -11 8 -7 -3 -33 9 -58 25 -24 17
-35 27 -24 23 11 -4 28 -10 37 -12z m189 0 c13 -16 12 -17 -3 -4 -17 13 -22
21 -14 21 2 0 10 -8 17 -17z m70 0 c13 -16 12 -17 -3 -4 -17 13 -22 21 -14 21
2 0 10 -8 17 -17z m606 11 c-3 -3 -12 -4 -19 -1 -8 3 -5 6 6 6 11 1 17 -2 13
-5z m-1002 -22 c-3 -3 -11 0 -18 7 -9 10 -8 11 6 5 10 -3 15 -9 12 -12z m255
-22 c17 -15 19 -18 5 -11 -11 6 -31 20 -45 31 -17 15 -19 18 -5 11 11 -6 31
-20 45 -31z m-130 -7 c0 -2 -10 2 -22 9 -13 7 -30 11 -38 10 -13 -2 -13 -1 -1
7 10 6 22 4 38 -6 13 -8 23 -17 23 -20z m241 10 c13 -16 12 -17 -3 -4 -17 13
-22 21 -14 21 2 0 10 -8 17 -17z m70 0 c13 -16 12 -17 -3 -4 -17 13 -22 21
-14 21 2 0 10 -8 17 -17z m-422 -20 c2 -2 -9 -3 -25 -2 -16 0 -23 3 -16 6 6 2
9 10 5 16 -4 7 2 5 13 -3 10 -8 21 -16 23 -17z m376 -28 c23 -20 18 -19 -17 6
-27 18 -48 34 -48 36 0 7 35 -16 65 -42z m35 9 c0 -2 -9 0 -20 6 -11 6 -20 13
-20 16 0 2 9 0 20 -6 11 -6 20 -13 20 -16z m605 -14 c-21 -22 -42 -40 -47 -40
-7 0 73 79 82 80 2 0 -14 -18 -35 -40z m-1110 10 c10 -11 16 -20 13 -20 -3 0
-13 9 -23 20 -10 11 -16 20 -13 20 3 0 13 -9 23 -20z m214 0 c7 -4 10 -10 5
-12 -5 -3 -22 3 -39 14 -27 18 -28 19 -5 13 14 -4 31 -11 39 -15z m191 -6 c0
-2 -9 0 -20 6 -11 6 -20 13 -20 16 0 2 9 0 20 -6 11 -6 20 -13 20 -16z m-310
-4 c12 -8 12 -10 -5 -10 -11 0 -27 5 -35 10 -12 8 -12 10 5 10 11 0 27 -5 35
-10z m45 -18 c-3 -3 -11 0 -18 7 -9 10 -8 11 6 5 10 -3 15 -9 12 -12z m102 3
c0 -8 -4 -12 -9 -9 -5 3 -6 10 -3 15 9 13 12 11 12 -6z m26 -20 c-7 -21 -12
-19 -10 4 0 11 5 18 9 15 4 -3 5 -11 1 -19z m-176 -1 c-3 -3 -12 -4 -19 -1 -8
3 -5 6 6 6 11 1 17 -2 13 -5z m133 -9 c14 -8 21 -14 15 -14 -5 0 -21 6 -35 14
-14 8 -20 14 -15 14 6 0 21 -6 35 -14z m-129 -31 c9 -11 2 -9 -18 6 -18 13
-33 25 -33 27 0 8 38 -17 51 -33z m959 23 c0 -2 -10 -12 -22 -23 l-23 -19 19
23 c18 21 26 27 26 19z m-85 -73 c-22 -20 -49 -40 -60 -45 l-20 -10 20 16 c11
9 19 21 17 26 -1 6 2 8 7 5 5 -4 22 5 38 19 15 13 30 24 33 24 3 0 -13 -16
-35 -35z m-785 -10 c0 -2 -9 0 -20 6 -11 6 -20 13 -20 16 0 2 9 0 20 -6 11 -6
20 -13 20 -16z m141 -52 c-7 -2 -18 1 -23 6 -8 8 -4 9 13 5 13 -4 18 -8 10
-11z"/>
<path d="M2136 3341 c-16 -18 -16 -19 1 -17 18 1 33 14 33 29 0 13 -17 7 -34
-12z"/>
<path d="M1911 3334 c0 -11 3 -14 6 -6 3 7 2 16 -1 19 -3 4 -6 -2 -5 -13z"/>
<path d="M2316 3320 c7 -28 12 -35 18 -29 2 2 -2 15 -10 29 l-15 25 7 -25z"/>
<path d="M1870 3321 c0 -6 4 -13 10 -16 6 -3 7 1 4 9 -7 18 -14 21 -14 7z"/>
<path d="M1987 3323 c-4 -3 -7 -11 -7 -17 0 -6 5 -5 12 2 6 6 9 14 7 17 -3 3
-9 2 -12 -2z"/>
<path d="M1755 3290 c3 -5 8 -10 11 -10 2 0 4 5 4 10 0 6 -5 10 -11 10 -5 0
-7 -4 -4 -10z"/>
<path d="M1780 3291 c0 -6 4 -12 9 -15 12 -8 41 4 41 16 0 6 -6 5 -15 -2 -10
-9 -15 -9 -15 -1 0 6 -4 11 -10 11 -5 0 -10 -4 -10 -9z"/>
<path d="M1844 3288 c2 -7 9 -13 17 -13 8 0 17 -4 21 -10 4 -5 10 -6 14 -2 4
4 -1 14 -12 21 -12 9 -21 11 -25 4 -4 -7 -8 -6 -12 1 -3 7 -5 7 -3 -1z"/>
<path d="M2220 3266 c-11 -22 -15 -23 -27 -10 -18 18 -23 18 -23 -2 0 -8 4
-13 9 -10 5 4 11 1 13 -5 5 -16 36 0 44 23 9 29 -1 32 -16 4z"/>
<path d="M2949 3367 c14 -18 51 -42 51 -33 0 3 -15 15 -32 27 -24 17 -29 18
-19 6z"/>
<path d="M2662 3088 c-16 -16 -15 -36 2 -54 19 -18 30 -18 46 1 10 12 10 21 2
40 -13 27 -31 32 -50 13z"/>
<path d="M1279 2529 c-23 -44 25 -91 59 -57 18 18 14 56 -7 68 -29 15 -39 13
-52 -11z"/>
<path d="M3926 2723 c-6 -14 -5 -15 5 -6 7 7 10 15 7 18 -3 3 -9 -2 -12 -12z"/>
<path d="M3869 2684 c-22 -25 -22 -26 -3 -16 12 6 24 18 28 27 8 21 3 19 -25
-11z"/>
<path d="M3811 2644 c-7 -8 -11 -17 -9 -20 3 -2 13 5 23 16 10 11 14 20 9 20
-5 -1 -15 -8 -23 -16z"/>
<path d="M3760 2640 c0 -5 5 -10 11 -10 5 0 7 5 4 10 -3 6 -8 10 -11 10 -2 0
-4 -4 -4 -10z"/>
<path d="M3735 2605 c-17 -8 -23 -14 -14 -15 9 0 30 7 45 15 36 19 10 18 -31
0z"/>
<path d="M3290 2562 c0 -10 8 -26 18 -35 21 -19 42 -23 24 -5 -14 14 -16 32
-3 23 5 -3 12 -1 16 4 3 6 12 8 20 4 8 -3 15 0 15 7 0 8 -9 10 -25 6 -14 -4
-34 -2 -45 4 -17 9 -20 8 -20 -8z"/>
<path d="M3570 2576 c0 -2 7 -6 15 -10 8 -3 15 -1 15 4 0 6 -7 10 -15 10 -8 0
-15 -2 -15 -4z"/>
<path d="M3650 2560 c0 -5 7 -7 15 -4 8 4 15 8 15 10 0 2 -7 4 -15 4 -8 0 -15
-4 -15 -10z"/>
<path d="M3683 2548 c-13 -6 -23 -15 -23 -20 0 -7 31 8 59 29 10 7 -16 1 -36
-9z"/>
<path d="M3600 2540 c-9 -6 -10 -10 -3 -10 6 0 15 5 18 10 8 12 4 12 -15 0z"/>
<path d="M3605 2510 c3 -5 8 -10 11 -10 2 0 4 5 4 10 0 6 -5 10 -11 10 -5 0
-7 -4 -4 -10z"/>
<path d="M3550 2202 c0 -4 19 -8 43 -8 30 -1 36 1 22 7 -26 10 -65 11 -65 1z"/>
<path d="M3498 2173 c7 -3 16 -2 19 1 4 3 -2 6 -13 5 -11 0 -14 -3 -6 -6z"/>
<path d="M3379 2013 c-13 -16 -12 -17 4 -4 9 7 17 15 17 17 0 8 -8 3 -21 -13z"/>
<path d="M652 1530 c-14 -23 -5 -26 21 -6 20 16 22 26 4 26 -7 0 -18 -9 -25
-20z"/>
<path d="M610 1495 c-7 -9 -11 -18 -8 -20 3 -3 11 1 18 10 7 9 11 18 8 20 -3
3 -11 -1 -18 -10z"/>
<path d="M570 1470 c0 -6 -3 -9 -8 -6 -4 2 -16 -3 -27 -11 -19 -15 -19 -15 5
-8 41 12 54 21 41 29 -6 4 -11 2 -11 -4z"/>
<path d="M490 1424 c0 -8 5 -12 10 -9 6 3 10 10 10 16 0 5 -4 9 -10 9 -5 0
-10 -7 -10 -16z"/>
<path d="M538 1413 c-10 -2 -18 -9 -18 -15 0 -5 7 -7 16 -4 9 3 20 6 25 6 5 0
9 5 9 10 0 10 -3 11 -32 3z"/>
<path d="M490 1390 c0 -5 5 -10 10 -10 6 0 10 5 10 10 0 6 -4 10 -10 10 -5 0
-10 -4 -10 -10z"/>
<path d="M471 1369 c6 -4 7 -9 3 -11 -5 -3 -3 -3 4 -1 8 1 25 3 38 3 13 0 24
3 24 8 0 4 -18 7 -40 7 -22 1 -35 -2 -29 -6z"/>
<path d="M2941 1304 c0 -11 3 -14 6 -6 3 7 2 16 -1 19 -3 4 -6 -2 -5 -13z"/>
<path d="M1304 1115 c-24 -18 -7 -19 26 0 16 9 19 14 9 15 -8 0 -24 -7 -35
-15z"/>
<path d="M2014 881 c11 -11 23 -21 28 -21 14 0 -1 19 -25 31 -22 12 -22 12 -3
-10z"/>
<path d="M2140 800 c8 -5 20 -10 25 -10 6 0 3 5 -5 10 -8 5 -19 10 -25 10 -5
0 -3 -5 5 -10z"/>
<path d="M1294 621 c11 -11 23 -21 28 -21 14 0 -1 19 -25 31 -22 12 -22 12 -3
-10z"/>
<path d="M3110 3376 c0 -9 5 -16 10 -16 6 0 10 4 10 9 0 6 -4 13 -10 16 -5 3
-10 -1 -10 -9z"/>
<path d="M465 3300 c3 -5 8 -10 11 -10 2 0 4 5 4 10 0 6 -5 10 -11 10 -5 0 -7
-4 -4 -10z"/>
<path d="M415 3290 c-3 -5 -1 -10 4 -10 6 0 11 5 11 10 0 6 -2 10 -4 10 -3 0
-8 -4 -11 -10z"/>
<path d="M519 3079 c-11 -11 -30 -24 -42 -29 -17 -7 -18 -9 -4 -9 9 -1 26 8
37 19 17 17 20 17 20 4 0 -13 3 -14 15 -4 8 6 19 9 26 5 8 -6 8 -2 0 14 -15
26 -26 26 -52 0z"/>
<path d="M442 3020 c0 -14 2 -19 5 -12 2 6 2 18 0 25 -3 6 -5 1 -5 -13z"/>
<path d="M470 3019 c0 -5 5 -7 10 -4 6 3 10 8 10 11 0 2 -4 4 -10 4 -5 0 -10
-5 -10 -11z"/>
<path d="M458 2963 c7 -3 16 -2 19 1 4 3 -2 6 -13 5 -11 0 -14 -3 -6 -6z"/>
<path d="M460 2941 c0 -5 7 -11 14 -14 10 -4 13 -1 9 9 -6 15 -23 19 -23 5z"/>
<path d="M415 2890 c3 -5 8 -10 11 -10 2 0 4 5 4 10 0 6 -5 10 -11 10 -5 0 -7
-4 -4 -10z"/>
<path d="M495 2870 c-3 -5 1 -10 10 -10 9 0 13 5 10 10 -3 6 -8 10 -10 10 -2
0 -7 -4 -10 -10z"/>
<path d="M471 2865 c1 -19 18 -51 18 -35 0 8 -4 22 -9 30 -5 8 -9 11 -9 5z"/>
<path d="M484 2805 c-18 -15 -18 -15 0 -8 13 4 17 3 12 -5 -4 -7 -1 -12 7 -12
10 0 13 7 10 20 -6 24 -5 24 -29 5z"/>
</g>
</svg>
